<svg width="85" height="21" viewBox="0 0 85 21" fill="none" xmlns="http://www.w3.org/2000/svg">
<path d="M1.846 7.6L0.320996 5.75L5.321 1.475H7.571V17.6H11.046V20H0.970996V17.6H4.821V6.325C4.821 6.125 4.821 5.925 4.821 5.725C4.821 5.50833 4.82933 5.29167 4.846 5.075L1.846 7.6ZM15.9386 20L21.6136 12.75L22.4886 11.55C22.0052 11.8833 21.4886 12.1333 20.9386 12.3C20.4052 12.45 19.8469 12.525 19.2636 12.525C18.4969 12.525 17.7969 12.4 17.1636 12.15C16.5302 11.8833 15.9886 11.5167 15.5386 11.05C15.0886 10.5667 14.7386 10 14.4886 9.35C14.2386 8.7 14.1136 7.99167 14.1136 7.225C14.1136 6.35833 14.2719 5.56667 14.5886 4.85C14.9219 4.11667 15.3636 3.49167 15.9136 2.975C16.4802 2.45833 17.1386 2.05833 17.8886 1.775C18.6552 1.475 19.4719 1.325 20.3386 1.325C21.2219 1.325 22.0302 1.46667 22.7636 1.75C23.5136 2.03333 24.1552 2.43333 24.6886 2.95C25.2219 3.46667 25.6302 4.1 25.9136 4.85C26.2136 5.58333 26.3636 6.41667 26.3636 7.35C26.3636 8.5 26.1636 9.525 25.7636 10.425C25.3802 11.3083 24.8719 12.2083 24.2386 13.125L19.4386 20H15.9386ZM16.8636 7.025C16.8636 8.075 17.1552 8.90833 17.7386 9.525C18.3219 10.125 19.1469 10.425 20.2136 10.425C21.2469 10.425 22.0886 10.1167 22.7386 9.5C23.3886 8.86667 23.7136 8.05 23.7136 7.05C23.7136 6.03333 23.4052 5.20833 22.7886 4.575C22.1886 3.925 21.3552 3.6 20.2886 3.6C19.2886 3.6 18.4636 3.91667 17.8136 4.55C17.1802 5.16667 16.8636 5.99167 16.8636 7.025ZM41.8562 10.775C41.8562 11.875 41.7478 12.9833 41.5312 14.1C41.3145 15.2167 40.9395 16.2333 40.4062 17.15C39.8895 18.05 39.1978 18.7833 38.3312 19.35C37.4645 19.9167 36.3895 20.2 35.1062 20.2C33.8228 20.2 32.7478 19.9167 31.8812 19.35C31.0145 18.7833 30.3228 18.05 29.8062 17.15C29.2895 16.2333 28.9228 15.2167 28.7062 14.1C28.4895 12.9833 28.3812 11.875 28.3812 10.775C28.3812 9.675 28.4895 8.56667 28.7062 7.45C28.9228 6.31667 29.2895 5.3 29.8062 4.4C30.3228 3.5 31.0145 2.76667 31.8812 2.2C32.7478 1.61667 33.8228 1.325 35.1062 1.325C36.4062 1.325 37.4895 1.61667 38.3562 2.2C39.2228 2.78333 39.9145 3.53333 40.4312 4.45C40.9478 5.36667 41.3145 6.38333 41.5312 7.5C41.7478 8.61667 41.8562 9.70833 41.8562 10.775ZM39.0062 10.775C39.0062 10.125 38.9645 9.39167 38.8812 8.575C38.7978 7.75833 38.6145 6.98333 38.3312 6.25C38.0645 5.51667 37.6728 4.9 37.1562 4.4C36.6562 3.9 35.9728 3.65 35.1062 3.65C34.2395 3.65 33.5478 3.9 33.0312 4.4C32.5312 4.9 32.1395 5.51667 31.8562 6.25C31.5895 6.98333 31.4145 7.75833 31.3312 8.575C31.2478 9.39167 31.2062 10.125 31.2062 10.775C31.2062 11.425 31.2478 12.1583 31.3312 12.975C31.4145 13.7917 31.5895 14.5667 31.8562 15.3C32.1395 16.0333 32.5395 16.65 33.0562 17.15C33.5728 17.65 34.2562 17.9 35.1062 17.9C35.9728 17.9 36.6562 17.65 37.1562 17.15C37.6728 16.65 38.0645 16.0333 38.3312 15.3C38.6145 14.5667 38.7978 13.7917 38.8812 12.975C38.9645 12.1583 39.0062 11.425 39.0062 10.775ZM50.3146 0.0749987H53.1146V12.925H53.1896L58.5896 6.25H61.7646L57.0896 11.825L62.2896 20H59.1646L55.4396 13.775L53.1146 16.45V20H50.3146V0.0749987ZM64.7194 6.25H67.0694L67.2944 8.175H67.3694C67.9528 7.54167 68.5944 7.00833 69.2944 6.575C69.9944 6.125 70.7694 5.9 71.6194 5.9C72.6694 5.9 73.4861 6.125 74.0694 6.575C74.6694 7.00833 75.1194 7.625 75.4194 8.425C76.1194 7.675 76.8194 7.06667 77.5194 6.6C78.2361 6.13333 79.0278 5.9 79.8944 5.9C81.3611 5.9 82.4278 6.36667 83.0944 7.3C83.7778 8.23333 84.1194 9.58333 84.1194 11.35V20H81.2444V11.7C81.2444 10.5 81.0611 9.65 80.6944 9.15C80.3278 8.63333 79.7444 8.375 78.9444 8.375C78.0278 8.375 76.9944 9 75.8444 10.25V20H72.9694V11.7C72.9694 10.5 72.7861 9.65 72.4194 9.15C72.0528 8.63333 71.4694 8.375 70.6694 8.375C69.7528 8.375 68.7194 9 67.5694 10.25V20H64.7194V6.25Z" fill="url(#paint0_linear_2419_12120)"/>
<defs>
<linearGradient id="paint0_linear_2419_12120" x1="-13.8136" y1="-5.4" x2="90.899" y2="30.964" gradientUnits="userSpaceOnUse">
<stop stop-color="#30A8FF"/>
<stop offset="0.595605" stop-color="#146FFF"/>
<stop offset="1" stop-color="#0047FF"/>
</linearGradient>
</defs>
</svg>
