<svg width="342" height="121" viewBox="0 0 342 121" fill="none" xmlns="http://www.w3.org/2000/svg">
<path d="M0.5 1V116.453" stroke="#F2F2F2" stroke-linecap="square"/>
<path d="M1 14.4129H341" stroke="#F2F2F2" stroke-linecap="square"/>
<path d="M1 34.787H341" stroke="#F2F2F2" stroke-linecap="square"/>
<path d="M1 55.1611H341" stroke="#F2F2F2" stroke-linecap="square"/>
<path d="M1 75.535H341" stroke="#F2F2F2" stroke-linecap="square"/>
<path d="M1 95.9095H341" stroke="#F2F2F2" stroke-linecap="square"/>
<path d="M1 116.284H341" stroke="#F2F2F2" stroke-linecap="square"/>
<path fill-rule="evenodd" clip-rule="evenodd" d="M2 119L38.0392 92.7667C40.6246 90.8847 42.1541 87.8797 42.1541 84.6818V67.428C42.1541 64.1181 43.7918 61.0227 46.5282 59.1606L72.1736 41.7092C75.7057 39.3057 80.3746 39.4115 83.7942 41.9727L104.669 57.6068C105.152 57.9691 105.668 58.2869 106.209 58.5561L125.493 68.1489C128.604 69.6968 132.296 69.5182 135.244 67.6772L168.883 46.6675C171.508 45.0282 174.743 44.6965 177.646 45.769L196.056 52.5714L212.329 61.2804C217.474 64.0336 223.873 61.8156 226.211 56.4691L230.843 45.8726C233.241 40.3868 239.889 38.2234 245.057 41.2475L257.141 48.32L268.744 53.1869C274.067 55.4197 279.947 51.5101 279.947 45.7376V44.0993C279.947 37.4697 287.988 34.1785 292.636 38.9058C293.229 39.5089 293.715 40.2091 294.071 40.976L329 116.094" fill="url(#paint0_linear_142_2419)"/>
<path d="M2 119L38.0392 92.7667C40.6246 90.8847 42.1541 87.8797 42.1541 84.6818V67.428C42.1541 64.1181 43.7918 61.0227 46.5282 59.1606L72.1736 41.7092C75.7057 39.3057 80.3746 39.4115 83.7941 41.9727L104.669 57.6068C105.152 57.9691 105.668 58.2869 106.209 58.5561L125.493 68.1489C128.604 69.6968 132.296 69.5182 135.244 67.6772L168.883 46.6675C171.508 45.0282 174.743 44.6965 177.646 45.769L196.056 52.5714L212.329 61.2804C217.474 64.0336 223.873 61.8156 226.211 56.4691L230.843 45.8726C233.241 40.3868 239.889 38.2234 245.057 41.2475L257.141 48.32L268.744 53.1869C274.067 55.4197 279.947 51.5101 279.947 45.7376V44.0993C279.947 37.4697 287.988 34.1785 292.636 38.9058V38.9058C293.229 39.5089 293.715 40.2091 294.071 40.976L329 116.094" stroke="#FFB649" stroke-width="2" stroke-linecap="square" stroke-linejoin="round"/>
<path fill-rule="evenodd" clip-rule="evenodd" d="M2 119L36.6888 101.65C40.076 99.9558 42.2155 96.4935 42.2155 92.7063V86.2319C42.2155 82.3494 44.4628 78.8178 47.9798 77.1733L73.7475 65.1249C76.5522 63.8135 79.8061 63.8752 82.559 65.2919L104.904 76.7913C105.337 77.0139 105.785 77.2047 106.245 77.3621L127.055 84.4752C129.399 85.2764 131.957 85.1792 134.233 84.2023L165.481 70.7923C169.593 69.0275 174.31 71.3474 175.423 75.6818C176.678 80.5712 182.401 82.7384 186.58 79.907L188.847 78.3713C193.013 75.5488 198.672 76.5871 201.565 80.7047L202.12 81.4955C205.866 86.8265 213.627 87.21 217.879 82.2741L231.036 67.003C233.828 63.7616 238.373 62.6558 242.343 64.2521L257.531 70.36L271.744 74.4564C276.064 75.7013 280.372 72.4595 280.372 67.9643C280.372 62.5006 286.52 59.2965 290.998 62.4262L292.781 63.6723C293.573 64.2251 294.255 64.9184 294.796 65.7176L329.5 117" fill="url(#paint1_linear_142_2419)"/>
<path d="M2 119L36.6888 101.65C40.076 99.9558 42.2155 96.4935 42.2155 92.7063V86.2319C42.2155 82.3494 44.4628 78.8178 47.9798 77.1733L73.7475 65.1249C76.5522 63.8135 79.8061 63.8752 82.559 65.2919L104.904 76.7913C105.337 77.0139 105.785 77.2047 106.245 77.3621L127.055 84.4752C129.399 85.2764 131.957 85.1792 134.233 84.2023L165.481 70.7923C169.593 69.0275 174.31 71.3474 175.423 75.6818V75.6818C176.678 80.5712 182.401 82.7384 186.58 79.907L188.847 78.3712C193.013 75.5488 198.672 76.5871 201.565 80.7047L202.12 81.4955C205.866 86.8265 213.627 87.21 217.879 82.2741L231.036 67.003C233.828 63.7616 238.373 62.6558 242.343 64.2521L257.531 70.36L271.744 74.4564C276.064 75.7013 280.372 72.4595 280.372 67.9643V67.9643C280.372 62.5006 286.52 59.2965 290.998 62.4262L292.781 63.6723C293.573 64.2251 294.255 64.9184 294.796 65.7176L329.5 117" stroke="#FD20A5" stroke-width="2" stroke-linecap="square" stroke-linejoin="round"/>
<defs>
<linearGradient id="paint0_linear_142_2419" x1="165.5" y1="26" x2="185.915" y2="173.467" gradientUnits="userSpaceOnUse">
<stop stop-color="#FFCC8F"/>
<stop offset="1" stop-color="white" stop-opacity="0"/>
</linearGradient>
<linearGradient id="paint1_linear_142_2419" x1="165.75" y1="55" x2="175.5" y2="157.5" gradientUnits="userSpaceOnUse">
<stop stop-color="#FF4747"/>
<stop offset="1" stop-color="white" stop-opacity="0"/>
</linearGradient>
</defs>
</svg>
