<svg width="342" height="121" viewBox="0 0 342 121" fill="none" xmlns="http://www.w3.org/2000/svg">
<path opacity="0.1" d="M0.5 1V116.453" stroke="#F2F2F2" stroke-linecap="square"/>
<path opacity="0.1" d="M1 14.4129H341" stroke="#F2F2F2" stroke-linecap="square"/>
<path opacity="0.1" d="M1 34.7871H341" stroke="#F2F2F2" stroke-linecap="square"/>
<path opacity="0.1" d="M1 55.1613H341" stroke="#F2F2F2" stroke-linecap="square"/>
<path opacity="0.1" d="M1 75.5351H341" stroke="#F2F2F2" stroke-linecap="square"/>
<path opacity="0.1" d="M1 95.9093H341" stroke="#F2F2F2" stroke-linecap="square"/>
<path opacity="0.1" d="M1 116.283H341" stroke="#F2F2F2" stroke-linecap="square"/>
<path fill-rule="evenodd" clip-rule="evenodd" d="M2 119L38.0392 92.7667C40.6246 90.8847 42.1541 87.8797 42.1541 84.6818V67.428C42.1541 64.1181 43.7918 61.0227 46.5282 59.1606L69.2682 43.6863C74.0405 40.4388 80.5636 41.895 83.5018 46.8638L94.9656 66.2507C95.6482 67.4051 96.5561 68.4104 97.6352 69.2068L118.713 84.7625C122.633 87.6559 128.068 87.3024 131.581 83.9258L168.526 48.4114C171.289 45.7554 175.327 44.9122 178.922 46.2406L194.002 51.8124C195.355 52.3125 196.585 53.0996 197.605 54.1196L212.164 68.6707C217.735 74.2388 227.257 71.4795 228.989 63.7955L232.343 48.9053C233.831 42.3033 241.309 39.0542 247.15 42.4726L257.141 48.32L268.744 53.1869C274.067 55.4197 279.947 51.5101 279.947 45.7376V44.0993C279.947 37.4697 287.988 34.1785 292.636 38.9058C293.229 39.5089 293.715 40.2091 294.071 40.976L329 116.094" fill="url(#paint0_linear_148_419)"/>
<path d="M2 119L38.0392 92.7667C40.6246 90.8847 42.1541 87.8797 42.1541 84.6818V67.428C42.1541 64.1181 43.7918 61.0227 46.5282 59.1606L69.2682 43.6863C74.0405 40.4388 80.5636 41.895 83.5018 46.8638L94.9656 66.2507C95.6482 67.4051 96.5561 68.4104 97.6352 69.2068L118.713 84.7625C122.633 87.6559 128.068 87.3024 131.581 83.9258L168.526 48.4114C171.289 45.7554 175.327 44.9122 178.922 46.2406L194.002 51.8124C195.355 52.3125 196.585 53.0996 197.605 54.1196L212.164 68.6707C217.735 74.2388 227.257 71.4795 228.989 63.7955L232.343 48.9053C233.831 42.3033 241.309 39.0542 247.15 42.4726L257.141 48.32L268.744 53.1869C274.067 55.4197 279.947 51.5101 279.947 45.7376V44.0993C279.947 37.4697 287.988 34.1785 292.636 38.9058V38.9058C293.229 39.5089 293.715 40.2091 294.071 40.976L329 116.094" stroke="#43FFF4" stroke-width="2" stroke-linecap="square" stroke-linejoin="round"/>
<defs>
<linearGradient id="paint0_linear_148_419" x1="165.5" y1="26" x2="185.915" y2="173.467" gradientUnits="userSpaceOnUse">
<stop stop-color="#57E2EB"/>
<stop offset="1" stop-color="#57C7EB" stop-opacity="0"/>
</linearGradient>
</defs>
</svg>
