<svg width="24" height="25" viewBox="0 0 24 25" fill="none" xmlns="http://www.w3.org/2000/svg">
<path d="M20 10.625V8.625C20 8.09457 19.7893 7.58586 19.4142 7.21079C19.0391 6.83571 18.5304 6.625 18 6.625H4C3.46957 6.625 2.96086 6.83571 2.58579 7.21079C2.21071 7.58586 2 8.09457 2 8.625V16.625C2 17.1554 2.21071 17.6641 2.58579 18.0392C2.96086 18.4143 3.46957 18.625 4 18.625H18C18.5304 18.625 19.0391 18.4143 19.4142 18.0392C19.7893 17.6641 20 17.1554 20 16.625V14.625H22V10.625H20ZM9 17.625L11 13.735L7 12.625L13 7.625L12 11.515L16 12.625L9 17.625Z" fill="white"/>
</svg>
