<svg width="24" height="25" viewBox="0 0 24 25" fill="none" xmlns="http://www.w3.org/2000/svg">
<path d="M20 20.75H4C3.46957 20.75 2.96086 20.5393 2.58579 20.1642C2.21071 19.7891 2 19.2804 2 18.75V6.75C2 6.21957 2.21071 5.71086 2.58579 5.33579C2.96086 4.96071 3.46957 4.75 4 4.75H20C20.5304 4.75 21.0391 4.96071 21.4142 5.33579C21.7893 5.71086 22 6.21957 22 6.75V18.75C22 19.2804 21.7893 19.7891 21.4142 20.1642C21.0391 20.5393 20.5304 20.75 20 20.75ZM4 6.75V18.75H20V6.75H4ZM15.5 16.75C14.837 16.75 14.2011 16.4866 13.7322 16.0178C13.2634 15.5489 13 14.913 13 14.25C13 13.587 13.2634 12.9511 13.7322 12.4822C14.2011 12.0134 14.837 11.75 15.5 11.75C16.163 11.75 16.7989 12.0134 17.2678 12.4822C17.7366 12.9511 18 13.587 18 14.25C18 14.913 17.7366 15.5489 17.2678 16.0178C16.7989 16.4866 16.163 16.75 15.5 16.75ZM11.5 16.75C10.837 16.75 10.2011 16.4866 9.73223 16.0178C9.26339 15.5489 9 14.913 9 14.25C9 13.587 9.26339 12.9511 9.73223 12.4822C10.2011 12.0134 10.837 11.75 11.5 11.75C12.043 11.75 12.57 11.93 13 12.262C12.6899 12.4924 12.4381 12.7921 12.2645 13.1372C12.091 13.4823 12.0006 13.8632 12.0006 14.2495C12.0006 14.6358 12.091 15.0167 12.2645 15.3618C12.4381 15.7069 12.6899 16.0066 13 16.237C12.57 16.569 12.043 16.749 11.5 16.75Z" fill="#2B3135"/>
</svg>
