<svg width="78" height="67" viewBox="0 0 78 67" fill="none" xmlns="http://www.w3.org/2000/svg">
<g opacity="0.9">
<path d="M65.6523 26.672L65.6515 26.6723L62.7334 27.802L62.7218 27.8065L62.7102 27.8112C62.5095 27.8928 62.2945 27.9336 62.0778 27.9312C61.8611 27.9288 61.6471 27.8833 61.4482 27.7973C61.2493 27.7113 61.0695 27.5866 60.9194 27.4304C60.7692 27.2742 60.6516 27.0897 60.5735 26.8875C60.4955 26.6854 60.4584 26.4697 60.4646 26.2532C60.4707 26.0365 60.5199 25.8233 60.6094 25.626C60.6988 25.4286 60.8266 25.251 60.9854 25.1036C61.1442 24.9562 61.3308 24.8418 61.5342 24.7673L61.5465 24.7628L61.5586 24.7581L64.4794 23.6297C64.4795 23.6297 64.4795 23.6297 64.4796 23.6296C64.8832 23.4738 65.3322 23.4847 65.7278 23.6598C66.1219 23.8343 66.4297 24.1571 66.5863 24.562C66.7422 24.9657 66.7314 25.4147 66.5562 25.8104C66.3811 26.2061 66.0559 26.516 65.6523 26.672ZM36.3227 16.1105L36.3225 16.11L35.1995 13.2031C35.0563 12.8041 35.0739 12.3648 35.249 11.9784C35.4256 11.5887 35.7482 11.2839 36.1473 11.1297C36.5465 10.9755 36.9902 10.9842 37.3829 11.154C37.7725 11.3224 38.0809 11.6359 38.2432 12.0277L39.3687 14.935C39.3688 14.9352 39.3689 14.9355 39.369 14.9358C39.4459 15.1356 39.4829 15.3485 39.4777 15.5625C39.4724 15.7769 39.425 15.9881 39.3382 16.1841C39.2513 16.3801 39.1267 16.557 38.9715 16.7049C38.8163 16.8527 38.6334 16.9686 38.4334 17.0457C38.2334 17.1229 38.0202 17.16 37.8058 17.1547C37.5915 17.1495 37.3803 17.1021 37.1843 17.0153C36.9883 16.9284 36.8114 16.8038 36.6635 16.6486C36.5157 16.4933 36.3998 16.3105 36.3227 16.1105ZM54.151 11.5133C54.5467 11.6884 54.8567 12.0137 55.0126 12.4174C55.1686 12.8211 55.1578 13.2702 54.9826 13.666L53.7149 16.5298C53.5397 16.9255 53.2145 17.2355 52.8108 17.3915C52.4071 17.5474 51.9579 17.5366 51.5622 17.3614C51.1664 17.1863 50.8565 16.861 50.7005 16.4573C50.5446 16.0536 50.5554 15.6045 50.7305 15.2087L51.9982 12.3449C52.1734 11.9492 52.4987 11.6392 52.9024 11.4832C53.3061 11.3273 53.7552 11.3381 54.151 11.5133ZM54.7001 37.5158C53.5163 40.1901 51.3186 42.2846 48.5904 43.3386C45.8623 44.3925 42.8272 44.3196 40.1529 43.1357C37.4785 41.9519 35.384 39.7542 34.33 37.026C33.2761 34.2979 33.3491 31.2628 34.5329 28.5885C35.7167 25.9141 37.9144 23.8196 40.6426 22.7656C43.3707 21.7117 46.4058 21.7847 49.0802 22.9685C51.7545 24.1523 53.849 26.3501 54.903 29.0782C55.9569 31.8063 55.884 34.8414 54.7001 37.5158ZM50.99 54.077L49.8724 51.1841C49.7293 50.785 49.7469 50.3458 49.922 49.9594C50.0986 49.5697 50.4212 49.2649 50.8203 49.1107C51.2195 48.9565 51.6632 48.9652 52.0559 49.135C52.4453 49.3034 52.7537 49.6166 52.916 50.0083L54.0336 52.9012C54.1768 53.3002 54.1591 53.7394 53.984 54.1258C53.8074 54.5156 53.4848 54.8204 53.0857 54.9746C52.6866 55.1288 52.2428 55.12 51.8501 54.9502C51.4607 54.7819 51.1523 54.4686 50.99 54.077ZM65.2513 43.4483C64.8475 43.6042 64.3984 43.5934 64.0026 43.4182L61.1388 42.1505C60.7431 41.9754 60.4331 41.6501 60.2772 41.2464C60.1212 40.8427 60.132 40.3936 60.3072 39.9978C60.4824 39.6021 60.8076 39.2921 61.2113 39.1361C61.615 38.9802 62.0642 38.991 62.4599 39.1662L65.3237 40.4339C65.7195 40.609 66.0294 40.9343 66.1854 41.338C66.3414 41.7417 66.3306 42.1908 66.1554 42.5866C65.9802 42.9823 65.655 43.2923 65.2513 43.4483ZM37.6708 48.7428C38.0666 48.918 38.3765 49.2432 38.5325 49.6469C38.6884 50.0506 38.6777 50.4998 38.5025 50.8955L37.2348 53.7593C37.0596 54.1551 36.7344 54.465 36.3306 54.621C35.9269 54.777 35.4778 54.7662 35.082 54.591C34.6863 54.4158 34.3763 54.0906 34.2204 53.6869C34.0644 53.2832 34.0752 52.834 34.2504 52.4383L35.5181 49.5744C35.6933 49.1787 36.0185 48.8687 36.4222 48.7128C36.8259 48.5568 37.2751 48.5676 37.6708 48.7428ZM27.6603 41.3516L24.7675 42.4692C24.3685 42.6124 23.9292 42.5947 23.5428 42.4196C23.1531 42.243 22.8483 41.9204 22.6941 41.5213C22.5399 41.1222 22.5486 40.6784 22.7184 40.2857C22.8867 39.8963 23.2 39.5879 23.5917 39.4257L26.4845 38.3081C26.8835 38.1649 27.3228 38.1825 27.7092 38.3576C28.0989 38.5342 28.4037 38.8568 28.5579 39.2559C28.7121 39.6551 28.7034 40.0988 28.5336 40.4916C28.3653 40.8809 28.052 41.1893 27.6603 41.3516ZM28.0217 26.9681C27.618 27.1241 27.1689 27.1133 26.7731 26.9381L23.9093 25.6704C23.5135 25.4952 23.2036 25.17 23.0476 24.7663C22.8917 24.3625 22.9025 23.9134 23.0776 23.5177C23.2528 23.1219 23.578 22.8119 23.9818 22.656C24.3855 22.5 24.8346 22.5108 25.2304 22.686L28.0942 23.9537C28.4899 24.1289 28.7999 24.4541 28.9558 24.8578C29.1118 25.2615 29.101 25.7107 28.9258 26.1064C28.7506 26.5022 28.4254 26.8121 28.0217 26.9681Z" stroke="#FAB16D" stroke-width="3"/>
<path d="M17.3097 28.6788L17.3098 28.6787C21.0718 25.4347 25.87 23.643 30.8375 23.6272C40.9585 23.6276 49.3402 31.1507 50.2517 40.8242L50.2887 41.2172L50.6795 41.2724C56.5851 42.1071 61.1734 47.0475 61.1734 53.0889C61.1734 59.7205 55.6384 65.0276 48.9031 65.0276H14.5742C6.84456 65.0276 0.5 58.9381 0.5 51.335C0.5 44.7889 5.20189 39.3527 11.448 37.9738L11.7782 37.9009L11.8335 37.5673C12.3606 34.3857 14.4201 31.1685 17.3097 28.6788Z" fill="#E7E7E7" stroke="#DCDCDC"/>
</g>
</svg>
