<svg width="16" height="14" viewBox="0 0 16 14" fill="none" xmlns="http://www.w3.org/2000/svg">
<path d="M6.58873 10.19C6.65222 10.19 6.71311 10.1648 6.75801 10.12C6.8029 10.0752 6.82813 10.0145 6.82813 9.95116C6.82813 9.88783 6.8029 9.82708 6.75801 9.7823C6.71311 9.73751 6.65222 9.71235 6.58873 9.71235L3.71595 9.71235C3.62855 9.71229 3.54283 9.68836 3.46809 9.64316C3.39335 9.59796 3.33244 9.53321 3.29196 9.45594C3.25148 9.37866 3.23298 9.29181 3.23846 9.20479C3.24394 9.11778 3.27319 9.03392 3.32304 8.9623C3.3729 8.89069 3.44145 8.83405 3.52127 8.79854C3.6011 8.76302 3.68914 8.74998 3.77587 8.76082C3.86259 8.77167 3.94468 8.80599 4.01325 8.86006C4.08181 8.91413 4.13423 8.98589 4.16482 9.06757C4.17435 9.09859 4.19012 9.12736 4.21116 9.1521C4.23221 9.17685 4.25809 9.19705 4.28722 9.21149C4.31635 9.22593 4.34813 9.23429 4.38061 9.23606C4.41309 9.23784 4.44559 9.233 4.47613 9.22183C4.50667 9.21065 4.53461 9.19339 4.55824 9.17109C4.58187 9.14879 4.6007 9.12192 4.61357 9.09212C4.62645 9.06232 4.6331 9.03021 4.63312 8.99777C4.63314 8.96532 4.62653 8.9332 4.61369 8.90339C4.553 8.73967 4.44848 8.59567 4.31151 8.48703C4.17454 8.37839 4.01035 8.30927 3.83677 8.28718C3.66319 8.26508 3.48685 8.29086 3.32693 8.3617C3.167 8.43255 3.02958 8.54575 2.92961 8.68902C2.82965 8.83229 2.77094 9.00014 2.75988 9.17435C2.74882 9.34856 2.78582 9.52247 2.86687 9.67717C2.94792 9.83188 3.06992 9.96147 3.21961 10.0519C3.3693 10.1423 3.54096 10.19 3.71595 10.19L6.58873 10.19ZM2.75836 11.6228L6.10993 11.6228C6.17342 11.6228 6.23432 11.648 6.27921 11.6928C6.32411 11.7376 6.34933 11.7983 6.34933 11.8616C6.34933 11.925 6.32411 11.9857 6.27921 12.0305C6.23432 12.0753 6.17342 12.1005 6.10993 12.1005L2.75836 12.1005C2.67096 12.1005 2.58524 12.1244 2.5105 12.1696C2.43576 12.2148 2.37485 12.2796 2.33437 12.3569C2.29389 12.4341 2.27539 12.521 2.28087 12.608C2.28634 12.695 2.3156 12.7789 2.36545 12.8505C2.41531 12.9221 2.48386 12.9788 2.56368 13.0143C2.64351 13.0498 2.73155 13.0628 2.81827 13.052C2.905 13.0411 2.98709 13.0068 3.05566 12.9527C3.12422 12.8987 3.17664 12.8269 3.20723 12.7452C3.21676 12.7142 3.23253 12.6854 3.25357 12.6607C3.27462 12.636 3.30049 12.6158 3.32963 12.6013C3.35876 12.5869 3.39054 12.5785 3.42302 12.5767C3.4555 12.575 3.488 12.5798 3.51854 12.591C3.54908 12.6022 3.57702 12.6194 3.60065 12.6417C3.62428 12.664 3.64311 12.6909 3.65598 12.7207C3.66886 12.7505 3.67551 12.7826 3.67553 12.815C3.67555 12.8475 3.66894 12.8796 3.6561 12.9094C3.5954 13.0731 3.49089 13.2171 3.35392 13.3258C3.21695 13.4344 3.05276 13.5035 2.87918 13.5256C2.7056 13.5477 2.52926 13.5219 2.36933 13.4511C2.2094 13.3803 2.07199 13.2671 1.97202 13.1238C1.87205 12.9805 1.81335 12.8127 1.80229 12.6385C1.79123 12.4642 1.82823 12.2903 1.90928 12.1356C1.99033 11.9809 2.11233 11.8513 2.26202 11.7609C2.41171 11.6705 2.58337 11.6228 2.75836 11.6228V11.6228ZM1.08257 9.23473C1.27808 9.23524 1.46878 9.29524 1.62919 9.40672C1.78961 9.5182 1.9121 9.67586 1.98032 9.85863C1.99315 9.88844 1.99976 9.92055 1.99974 9.953C1.99972 9.98545 1.99307 10.0176 1.9802 10.0474C1.96732 10.0772 1.9485 10.104 1.92487 10.1263C1.90124 10.1486 1.8733 10.1659 1.84276 10.1771C1.81222 10.1882 1.77971 10.1931 1.74723 10.1913C1.71475 10.1895 1.68297 10.1812 1.65384 10.1667C1.62471 10.1523 1.59883 10.1321 1.57779 10.1073C1.55674 10.0826 1.54097 10.0538 1.53145 10.0228C1.50085 9.94113 1.44844 9.86937 1.37987 9.8153C1.31131 9.76123 1.22921 9.72691 1.14249 9.71606C1.05577 9.70522 0.96772 9.71826 0.887897 9.75378C0.808074 9.78929 0.73952 9.84593 0.689666 9.91754C0.639811 9.98916 0.610559 10.073 0.60508 10.16C0.599601 10.247 0.618104 10.3339 0.658583 10.4112C0.699063 10.4884 0.759974 10.5532 0.834714 10.5984C0.909454 10.6436 0.995172 10.6675 1.08257 10.6676L6.34933 10.6676C6.41282 10.6676 6.47371 10.6928 6.51861 10.7375C6.56351 10.7823 6.58873 10.8431 6.58873 10.9064C6.58873 10.9697 6.56351 11.0305 6.51861 11.0753C6.47371 11.1201 6.41282 11.1452 6.34933 11.1452L1.08257 11.1452C0.828606 11.1452 0.585039 11.0446 0.405456 10.8654C0.225872 10.6863 0.124983 10.4433 0.124983 10.19C0.124983 9.93663 0.225872 9.69366 0.405455 9.51452C0.585039 9.33538 0.828606 9.23473 1.08257 9.23473V9.23473Z" fill="white"/>
<path d="M11.3569 9.93263V6.92074H0.169922V3.47859H11.3569V0.466705L15.8747 5.19967L11.3569 9.93263Z" fill="white"/>
</svg>
