<svg width="30" height="30" viewBox="0 0 30 30" fill="none" xmlns="http://www.w3.org/2000/svg">
<g clip-path="url(#clip0_2419_9257)">
<path d="M0.859152 20.625H18.4266C18.5394 20.6251 18.6512 20.6057 18.7554 20.5679C18.8597 20.5302 18.9545 20.4748 19.0343 20.405C19.1141 20.3352 19.1773 20.2523 19.2205 20.161C19.2636 20.0698 19.2858 19.972 19.2857 19.8732V17.6268C19.2858 17.528 19.2636 17.4302 19.2205 17.339C19.1773 17.2477 19.1141 17.1648 19.0343 17.095C18.9545 17.0252 18.8597 16.9698 18.7554 16.9321C18.6512 16.8943 18.5394 16.8749 18.4266 16.875H0.859152C0.746302 16.8749 0.634542 16.8943 0.530265 16.9321C0.425988 16.9698 0.331241 17.0252 0.251444 17.095C0.171646 17.1648 0.108365 17.2477 0.0652199 17.339C0.0220747 17.4302 -8.77996e-05 17.528 2.61399e-07 17.6268V19.8732C-8.77996e-05 19.972 0.0220747 20.0698 0.0652199 20.161C0.108365 20.2523 0.171646 20.3352 0.251444 20.405C0.331241 20.4748 0.425988 20.5302 0.530265 20.5679C0.634542 20.6057 0.746302 20.6251 0.859152 20.625ZM0.859152 5.625H18.4266C18.5394 5.62508 18.6512 5.60569 18.7554 5.56793C18.8597 5.53018 18.9545 5.47481 19.0343 5.40499C19.1141 5.33516 19.1773 5.25226 19.2205 5.16102C19.2636 5.06978 19.2858 4.97199 19.2857 4.87324V2.62676C19.2858 2.52801 19.2636 2.43022 19.2205 2.33898C19.1773 2.24774 19.1141 2.16484 19.0343 2.09501C18.9545 2.02519 18.8597 1.96982 18.7554 1.93207C18.6512 1.89432 18.5394 1.87492 18.4266 1.875H0.859152C0.746302 1.87492 0.634542 1.89432 0.530265 1.93207C0.425988 1.96982 0.331241 2.02519 0.251444 2.09501C0.171646 2.16484 0.108365 2.24774 0.0652199 2.33898C0.0220747 2.43022 -8.77996e-05 2.52801 2.61399e-07 2.62676V4.87324C-8.77996e-05 4.97199 0.0220747 5.06978 0.0652199 5.16102C0.108365 5.25226 0.171646 5.33516 0.251444 5.40499C0.331241 5.47481 0.425988 5.53018 0.530265 5.56793C0.634542 5.60569 0.746302 5.62508 0.859152 5.625ZM28.9286 9.375H1.07143C0.787268 9.375 0.514746 9.47377 0.313814 9.64959C0.112883 9.8254 2.61399e-07 10.0639 2.61399e-07 10.3125V12.1875C2.61399e-07 12.4361 0.112883 12.6746 0.313814 12.8504C0.514746 13.0262 0.787268 13.125 1.07143 13.125H28.9286C29.2127 13.125 29.4853 13.0262 29.6862 12.8504C29.8871 12.6746 30 12.4361 30 12.1875V10.3125C30 10.0639 29.8871 9.8254 29.6862 9.64959C29.4853 9.47377 29.2127 9.375 28.9286 9.375ZM28.9286 24.375H1.07143C0.787268 24.375 0.514746 24.4738 0.313814 24.6496C0.112883 24.8254 2.61399e-07 25.0639 2.61399e-07 25.3125V27.1875C2.61399e-07 27.4361 0.112883 27.6746 0.313814 27.8504C0.514746 28.0262 0.787268 28.125 1.07143 28.125H28.9286C29.2127 28.125 29.4853 28.0262 29.6862 27.8504C29.8871 27.6746 30 27.4361 30 27.1875V25.3125C30 25.0639 29.8871 24.8254 29.6862 24.6496C29.4853 24.4738 29.2127 24.375 28.9286 24.375Z" fill="#2B3135"/>
</g>
<defs>
<clipPath id="clip0_2419_9257">
<rect width="30" height="30" fill="white"/>
</clipPath>
</defs>
</svg>
