<svg width="26" height="26" viewBox="0 0 26 26" fill="none" xmlns="http://www.w3.org/2000/svg">
<path d="M18.9388 13.3258C18.9291 11.6773 19.6761 10.4348 21.1844 9.5187C20.3408 8.31008 19.0645 7.64534 17.3821 7.51723C15.7892 7.39153 14.0463 8.44545 13.4082 8.44545C12.7338 8.44545 11.1916 7.56074 9.97813 7.56074C7.47387 7.59942 4.8125 9.55738 4.8125 13.541C4.8125 14.7182 5.02763 15.934 5.4579 17.1862C6.0332 18.8347 8.10719 22.8739 10.2706 22.8087C11.4019 22.7821 12.202 22.0061 13.6741 22.0061C15.1027 22.0061 15.8423 22.8087 17.1041 22.8087C19.2869 22.7772 21.1627 19.1055 21.709 17.4521C18.7817 16.0718 18.9388 13.4104 18.9388 13.3258V13.3258ZM16.3983 5.95328C17.6238 4.4981 17.5126 3.17346 17.4764 2.69727C16.3935 2.76011 15.1413 3.43452 14.4283 4.26363C13.6427 5.15318 13.181 6.25302 13.2801 7.49306C14.45 7.5825 15.5184 6.9806 16.3983 5.95328V5.95328Z" fill="white"/>
</svg>
