<svg width="26" height="26" viewBox="0 0 26 26" fill="none" xmlns="http://www.w3.org/2000/svg">
<path d="M7.40122 18.3044C7.40122 18.8701 7.86291 19.3318 8.43096 19.3318H9.60816V22.2421C9.60816 22.9794 10.2004 23.5813 10.928 23.5813C11.658 23.5813 12.2478 22.9818 12.2478 22.2421V19.3293H14.3024V22.2397C14.3024 22.9769 14.8946 23.5788 15.6222 23.5788C16.3522 23.5788 16.942 22.9794 16.942 22.2397V19.3293H18.1192C18.6873 19.3293 19.149 18.8676 19.149 18.302V8.74911H7.40122V18.3044V18.3044ZM16.0332 3.79861L17.1185 2.22741C17.1814 2.13556 17.1668 2.01228 17.0822 1.95185C16.9976 1.89383 16.8768 1.92284 16.8139 2.01469L15.6875 3.64874C14.9454 3.35626 14.1187 3.1943 13.2509 3.1943C12.3831 3.1943 11.5564 3.35626 10.8144 3.64874L9.68793 2.01711C9.62508 1.92526 9.50422 1.89383 9.41961 1.95426C9.33501 2.01228 9.32051 2.13314 9.38335 2.22983L10.4687 3.80103C8.74279 4.60355 7.53417 6.12399 7.37947 7.90066H19.1272C18.9677 6.12157 17.7567 4.60113 16.0332 3.79861V3.79861ZM10.7708 6.27628C10.6422 6.27628 10.5165 6.23814 10.4096 6.16669C10.3027 6.09524 10.2193 5.99369 10.1701 5.87488C10.1209 5.75606 10.108 5.62532 10.1331 5.49919C10.1582 5.37305 10.2201 5.25719 10.3111 5.16626C10.402 5.07532 10.5179 5.01339 10.644 4.9883C10.7701 4.96321 10.9009 4.97609 11.0197 5.0253C11.1385 5.07452 11.24 5.15786 11.3115 5.26479C11.3829 5.37172 11.4211 5.49744 11.4211 5.62604C11.4206 5.79836 11.352 5.96349 11.2301 6.08533C11.1083 6.20718 10.9432 6.27583 10.7708 6.27628V6.27628ZM15.8084 6.27628C15.6798 6.27628 15.554 6.23814 15.4471 6.16669C15.3402 6.09524 15.2568 5.99369 15.2076 5.87488C15.1584 5.75606 15.1455 5.62532 15.1706 5.49919C15.1957 5.37305 15.2576 5.25719 15.3486 5.16626C15.4395 5.07532 15.5554 5.01339 15.6815 4.9883C15.8076 4.96321 15.9384 4.97609 16.0572 5.0253C16.176 5.07452 16.2776 5.15786 16.349 5.26479C16.4205 5.37172 16.4586 5.49744 16.4586 5.62604C16.4582 5.79836 16.3895 5.96349 16.2677 6.08533C16.1458 6.20718 15.9807 6.27583 15.8084 6.27628ZM21.2085 8.71043C20.4785 8.71043 19.8887 9.30991 19.8887 10.0496V15.2805C19.8887 16.0177 20.4809 16.6196 21.2085 16.6196C21.9385 16.6196 22.5283 16.0201 22.5283 15.2805V10.0472C22.5307 9.30749 21.9409 8.71043 21.2085 8.71043ZM5.28856 8.71043C4.55855 8.71043 3.96875 9.30991 3.96875 10.0496V15.2805C3.96875 16.0177 4.56097 16.6196 5.28856 16.6196C6.01856 16.6196 6.60837 16.0201 6.60837 15.2805V10.0472C6.60837 9.30749 6.01615 8.71043 5.28856 8.71043Z" fill="white"/>
</svg>
