<svg width="25" height="24" viewBox="0 0 25 24" fill="none" xmlns="http://www.w3.org/2000/svg">
<path fill-rule="evenodd" clip-rule="evenodd" d="M8.53125 4H16.5312V2H18.5312V4H19.5312C20.0617 4 20.5704 4.21071 20.9455 4.58579C21.3205 4.96086 21.5312 5.46957 21.5312 6V20C21.5312 20.5304 21.3205 21.0391 20.9455 21.4142C20.5704 21.7893 20.0617 22 19.5312 22H5.53125C5.00082 22 4.49211 21.7893 4.11704 21.4142C3.74196 21.0391 3.53125 20.5304 3.53125 20V6C3.53125 5.46957 3.74196 4.96086 4.11704 4.58579C4.49211 4.21071 5.00082 4 5.53125 4H6.53125V2H8.53125V4ZM5.53125 8V20H19.5312V8H5.53125ZM7.53125 11H9.53125V13H7.53125V11ZM11.5312 11H13.5312V13H11.5312V11ZM15.5312 11H17.5312V13H15.5312V11ZM15.5312 15H17.5312V17H15.5312V15ZM11.5312 15H13.5312V17H11.5312V15ZM7.53125 15H9.53125V17H7.53125V15Z" fill="#9A9A9A"/>
</svg>
