<svg width="29" height="28" viewBox="0 0 29 28" fill="none" xmlns="http://www.w3.org/2000/svg">
<path d="M20.7143 21.0007C19.4344 21.0007 18.3988 22.0507 18.3988 23.334C18.3988 24.6173 19.4344 25.6673 20.7143 25.6673C21.9942 25.6673 23.0414 24.6173 23.0414 23.334C23.0414 22.0507 21.9942 21.0007 20.7143 21.0007ZM9.07889 21.0007C7.799 21.0007 6.76345 22.0507 6.76345 23.334C6.76345 24.6173 7.799 25.6673 9.07889 25.6673C10.3588 25.6673 11.406 24.6173 11.406 23.334C11.406 22.0507 10.3588 21.0007 9.07889 21.0007ZM9.07889 17.5007L10.3588 15.1673H19.0271C19.8998 15.1673 20.6677 14.689 21.0633 13.9657L26.1829 4.66732H6.99615L5.90243 2.33398H2.09766V4.66732H4.42473L8.61347 13.5223L5.14613 19.834H23.0414V17.5007H9.07889Z" fill="#DDDDDD"/>
</svg>
