<svg width="29" height="28" viewBox="0 0 29 28" fill="none" xmlns="http://www.w3.org/2000/svg">
<path d="M20.0697 20.9997C18.7899 20.9997 17.7543 22.0497 17.7543 23.333C17.7543 24.6163 18.7899 25.6663 20.0697 25.6663C21.3496 25.6663 22.3968 24.6163 22.3968 23.333C22.3968 22.0497 21.3496 20.9997 20.0697 20.9997ZM8.43436 20.9997C7.15447 20.9997 6.11892 22.0497 6.11892 23.333C6.11892 24.6163 7.15447 25.6663 8.43436 25.6663C9.71425 25.6663 10.7614 24.6163 10.7614 23.333C10.7614 22.0497 9.71425 20.9997 8.43436 20.9997ZM8.43436 17.4997L9.71425 15.1663H18.3826C19.2553 15.1663 20.0232 14.688 20.4188 13.9647L25.5384 4.66634H6.35162L5.2579 2.33301H1.45312V4.66634H3.7802L7.96894 13.5213L4.5016 19.833H22.3968V17.4997H8.43436Z" fill="#DDDDDD"/>
</svg>
