<svg width="29" height="28" viewBox="0 0 29 28" fill="none" xmlns="http://www.w3.org/2000/svg">
<path d="M20.4994 21.0007C19.2195 21.0007 18.184 22.0507 18.184 23.334C18.184 24.6173 19.2195 25.6673 20.4994 25.6673C21.7793 25.6673 22.8265 24.6173 22.8265 23.334C22.8265 22.0507 21.7793 21.0007 20.4994 21.0007ZM8.86405 21.0007C7.58415 21.0007 6.5486 22.0507 6.5486 23.334C6.5486 24.6173 7.58415 25.6673 8.86405 25.6673C10.1439 25.6673 11.1911 24.6173 11.1911 23.334C11.1911 22.0507 10.1439 21.0007 8.86405 21.0007ZM8.86405 17.5007L10.1439 15.1673H18.8123C19.685 15.1673 20.4529 14.689 20.8485 13.9657L25.9681 4.66732H6.78131L5.68758 2.33398H1.88281V4.66732H4.20989L8.39863 13.5223L4.93128 19.834H22.8265V17.5007H8.86405Z" fill="#DDDDDD"/>
</svg>
