<svg width="24" height="25" viewBox="0 0 24 25" fill="none" xmlns="http://www.w3.org/2000/svg">
<path d="M16.1401 17.425C15.2367 17.425 14.5058 18.145 14.5058 19.025C14.5058 19.905 15.2367 20.625 16.1401 20.625C17.0435 20.625 17.7826 19.905 17.7826 19.025C17.7826 18.145 17.0435 17.425 16.1401 17.425ZM7.92754 17.425C7.02415 17.425 6.29324 18.145 6.29324 19.025C6.29324 19.905 7.02415 20.625 7.92754 20.625C8.83092 20.625 9.57005 19.905 9.57005 19.025C9.57005 18.145 8.83092 17.425 7.92754 17.425ZM7.92754 15.025L8.83092 13.425H14.9493C15.5652 13.425 16.1072 13.097 16.3865 12.601L20 6.225H6.45749L5.68551 4.625H3V6.225H4.64251L7.59903 12.297L5.15169 16.625H17.7826V15.025H7.92754Z" fill="white"/>
</svg>
