<svg width="29" height="28" viewBox="0 0 29 28" fill="none" xmlns="http://www.w3.org/2000/svg">
<path d="M20.2846 21.0007C19.0047 21.0007 17.9691 22.0507 17.9691 23.334C17.9691 24.6173 19.0047 25.6673 20.2846 25.6673C21.5645 25.6673 22.6117 24.6173 22.6117 23.334C22.6117 22.0507 21.5645 21.0007 20.2846 21.0007ZM8.6492 21.0007C7.36931 21.0007 6.33376 22.0507 6.33376 23.334C6.33376 24.6173 7.36931 25.6673 8.6492 25.6673C9.92909 25.6673 10.9763 24.6173 10.9763 23.334C10.9763 22.0507 9.92909 21.0007 8.6492 21.0007ZM8.6492 17.5007L9.92909 15.1673H18.5975C19.4701 15.1673 20.238 14.689 20.6336 13.9657L25.7532 4.66732H6.56647L5.47274 2.33398H1.66797V4.66732H3.99505L8.18379 13.5223L4.71644 19.834H22.6117V17.5007H8.6492Z" fill="#DDDDDD"/>
</svg>
