<svg width="20" height="20" viewBox="0 0 20 20" fill="none" xmlns="http://www.w3.org/2000/svg">
<path d="M13.0474 2.56465C13.1391 2.61784 13.2101 2.70056 13.2488 2.79932C13.2874 2.89808 13.2914 3.00702 13.2602 3.10835L11.5718 8.59417H14.6869C14.7785 8.59414 14.868 8.62091 14.9445 8.67118C15.021 8.72146 15.0811 8.79304 15.1174 8.87708C15.1537 8.96113 15.1646 9.05396 15.1487 9.14412C15.1329 9.23428 15.0909 9.31782 15.0281 9.38442L7.52873 17.3525C7.45616 17.4297 7.3596 17.48 7.25479 17.4953C7.14997 17.5105 7.04307 17.4898 6.95152 17.4366C6.85998 17.3833 6.78917 17.3006 6.75065 17.2019C6.71214 17.1032 6.70817 16.9944 6.73941 16.8932L8.42772 11.4065H5.31265C5.22111 11.4065 5.13155 11.3797 5.05505 11.3294C4.97855 11.2792 4.91844 11.2076 4.88215 11.1235C4.84586 11.0395 4.83498 10.9467 4.85084 10.8565C4.86671 10.7664 4.90863 10.6828 4.97143 10.6162L12.4708 2.64808C12.5433 2.57102 12.6397 2.52075 12.7444 2.50543C12.8491 2.49011 12.9558 2.51065 13.0474 2.56371V2.56465Z" fill="#2B3135"/>
</svg>
