<svg width="19" height="22" viewBox="0 0 19 22" fill="none" xmlns="http://www.w3.org/2000/svg">
<mask id="path-1-inside-1_2419_6981" fill="white">
<path fill-rule="evenodd" clip-rule="evenodd" d="M12.1729 17.7889C15.7409 16.5404 18.3 13.1441 18.3 9.15C18.3 4.0966 14.2034 0 9.15 0C4.0966 0 0 4.0966 0 9.15C0 13.1436 2.55853 16.5397 6.12588 17.7885L9.14958 21.5293L12.1729 17.7889Z"/>
</mask>
<path d="M12.1729 17.7889L11.5124 15.9011L10.9753 16.089L10.6175 16.5316L12.1729 17.7889ZM6.12588 17.7885L7.68131 16.5312L7.32366 16.0887L6.78667 15.9008L6.12588 17.7885ZM9.14958 21.5293L7.59415 22.7865L9.14958 24.7109L10.705 22.7865L9.14958 21.5293ZM16.3 9.15C16.3 12.2679 14.3031 14.9246 11.5124 15.9011L12.8335 19.6766C17.1787 18.1562 20.3 14.0202 20.3 9.15H16.3ZM9.15 2C13.0988 2 16.3 5.20116 16.3 9.15H20.3C20.3 2.99203 15.308 -2 9.15 -2V2ZM2 9.15C2 5.20116 5.20116 2 9.15 2V-2C2.99203 -2 -2 2.99203 -2 9.15H2ZM6.78667 15.9008C3.99645 14.924 2 12.2676 2 9.15H-2C-2 14.0197 1.12062 18.1553 5.46509 19.6761L6.78667 15.9008ZM10.705 20.2721L7.68131 16.5312L4.57046 19.0457L7.59415 22.7865L10.705 20.2721ZM10.6175 16.5316L7.59415 20.2721L10.705 22.7865L13.7284 19.0461L10.6175 16.5316Z" fill="#DDDDDD" mask="url(#path-1-inside-1_2419_6981)"/>
</svg>
