<svg width="25" height="25" viewBox="0 0 25 25" fill="none" xmlns="http://www.w3.org/2000/svg">
<path d="M4.09766 11.9076C4.09766 11.2915 4.59712 10.792 5.21324 10.792H18.3973C19.0134 10.792 19.5128 11.2915 19.5128 11.9076C19.5128 12.5237 19.0134 13.0232 18.3973 13.0232H5.21324C4.59712 13.0232 4.09766 12.5237 4.09766 11.9076Z" fill="#2B3135"/>
<path d="M11.8081 19.7168C11.2 19.7168 10.707 19.2238 10.707 18.6157L10.707 5.19971C10.707 4.59159 11.2 4.09862 11.8081 4.09862C12.4162 4.09862 12.9092 4.59159 12.9092 5.19971L12.9092 18.6157C12.9092 19.2238 12.4162 19.7168 11.8081 19.7168Z" fill="#2B3135"/>
</svg>
