<svg width="20" height="21" viewBox="0 0 20 21" fill="none" xmlns="http://www.w3.org/2000/svg">
<path d="M13.6836 2.08203L19.9466 2.92623L14.7888 8.09696L13.6836 2.08203Z" fill="#2B3135"/>
<path d="M6.31378 18.9681L0.0507812 18.1239L5.20854 12.9531L6.31378 18.9681Z" fill="#2B3135"/>
<path d="M1.57812 6.83343L2.42021 0.554688L7.57797 5.72542L1.57812 6.83343Z" fill="#2B3135"/>
<path d="M2.2631 9.03906L0.0526302 9.46116C-5.09763e-08 9.8305 0 10.1471 0 10.5164C0 12.9435 0.842083 15.265 2.42099 17.059L3.9999 15.6871C2.7894 14.2626 2.10521 12.4159 2.10521 10.5164C2.10521 10.0416 2.15784 9.51393 2.2631 9.03906Z" fill="#2B3135"/>
<path d="M9.9994 0.5C7.15737 0.5 4.63112 1.71354 2.78906 3.61299L4.26271 5.09034C5.73635 3.56023 7.7363 2.6105 9.9994 2.6105C10.4731 2.6105 10.9994 2.66326 11.473 2.76879L11.8415 0.71105C11.2625 0.552763 10.631 0.5 9.9994 0.5Z" fill="#2B3135"/>
<path d="M17.737 12.0061L19.9475 11.584C20.0001 11.2147 20.0001 10.8981 20.0001 10.5288C20.0001 8.20725 19.2107 5.93846 17.737 4.14453L16.1055 5.46359C17.2633 6.88818 17.8949 8.68211 17.8949 10.476C17.8949 11.0037 17.8423 11.5313 17.737 12.0061Z" fill="#2B3135"/>
<path d="M15.735 15.9629C14.2614 17.493 12.2614 18.4427 9.99831 18.4427C9.52464 18.4427 8.99833 18.39 8.52466 18.2844L8.15625 20.3422C8.78781 20.4477 9.41937 20.5005 9.99831 20.5005C12.8403 20.5005 15.3666 19.2869 17.2086 17.3875L15.735 15.9629Z" fill="#2B3135"/>
<path d="M18.4217 14.2148L17.5796 20.4936L12.4219 15.3229L18.4217 14.2148Z" fill="#2B3135"/>
</svg>
