<svg width="24" height="24" viewBox="0 0 24 24" fill="none" xmlns="http://www.w3.org/2000/svg">
<g clip-path="url(#clip0_163_145)">
<path d="M15.2522 2.25L16.5 2.25C16.6254 2.25004 16.7487 2.28152 16.8588 2.34154C16.9689 2.40157 17.0622 2.48824 17.1301 2.59362C17.198 2.69899 17.2385 2.81972 17.2477 2.94476C17.2569 3.0698 17.2347 3.19516 17.183 3.30938L14.1614 9.97734L18.6984 10.0781L20.3531 8.07328C20.6686 7.67672 20.9203 7.5 21.5625 7.5L22.4025 7.5C22.5355 7.49572 22.6676 7.52356 22.7875 7.58117C22.9075 7.63878 23.0118 7.72446 23.0916 7.83094C23.2031 7.98141 23.3128 8.23641 23.2059 8.60016L22.2769 11.9283C22.2698 11.9531 22.2614 11.978 22.252 12.0023C22.2516 12.0047 22.2516 12.0071 22.252 12.0094C22.2617 12.0337 22.27 12.0586 22.2769 12.0839L23.2069 15.4331C23.3076 15.7898 23.1975 16.0392 23.0869 16.1859C23.0126 16.2845 22.9162 16.3643 22.8055 16.4188C22.6948 16.4734 22.5728 16.5012 22.4494 16.5L21.5625 16.5C21.083 16.5 20.6175 16.2848 20.3437 15.9375L18.7233 13.9664L14.1614 14.0339L17.182 20.6902C17.2338 20.8043 17.2562 20.9296 17.247 21.0547C17.2379 21.1797 17.1976 21.3004 17.1297 21.4059C17.0619 21.5113 16.9687 21.598 16.8587 21.6581C16.7487 21.7183 16.6254 21.7498 16.5 21.75L15.2386 21.75C15.0626 21.7465 14.8897 21.7033 14.7327 21.6238C14.5756 21.5443 14.4385 21.4304 14.3316 21.2906L8.46984 14.1656L5.76187 14.2369C5.56359 14.2477 5.01422 14.2514 4.88718 14.2514C2.29687 14.25 0.749997 13.4091 0.749997 12C0.749996 11.5566 0.927184 10.7344 2.11265 10.2113C2.8125 9.90188 3.74625 9.74531 4.88812 9.74531C5.01375 9.74531 5.56171 9.74906 5.76281 9.75984L8.47031 9.83203L14.3466 2.70703C14.4536 2.56787 14.5906 2.45455 14.7474 2.37545C14.9041 2.29634 15.0766 2.25347 15.2522 2.25V2.25Z" fill="white"/>
</g>
<defs>
<clipPath id="clip0_163_145">
<rect width="24" height="24" fill="white" transform="translate(24 24) rotate(180)"/>
</clipPath>
</defs>
</svg>
