<svg width="24" height="25" viewBox="0 0 24 25" fill="none" xmlns="http://www.w3.org/2000/svg">
<path d="M12 2.625C10.6868 2.625 9.38642 2.88366 8.17317 3.3862C6.95991 3.88875 5.85752 4.62535 4.92893 5.55393C3.05357 7.4293 2 9.97284 2 12.625C2 15.2772 3.05357 17.8207 4.92893 19.6961C5.85752 20.6247 6.95991 21.3612 8.17317 21.8638C9.38642 22.3663 10.6868 22.625 12 22.625C14.6522 22.625 17.1957 21.5714 19.0711 19.6961C20.9464 17.8207 22 15.2772 22 12.625C22 11.3118 21.7413 10.0114 21.2388 8.79817C20.7362 7.58491 19.9997 6.48252 19.0711 5.55393C18.1425 4.62535 17.0401 3.88875 15.8268 3.3862C14.6136 2.88366 13.3132 2.625 12 2.625ZM12 9.015C13.6135 10.0633 15.4958 10.6224 17.42 10.625C18.2 10.625 18.95 10.535 19.67 10.365C19.88 11.075 20 11.835 20 12.625C20 17.035 16.41 20.625 12 20.625C9 20.625 6.39 18.965 5 16.515L6.75 14.625V13.625C6.75 13.2935 6.8817 12.9755 7.11612 12.7411C7.35054 12.5067 7.66848 12.375 8 12.375C8.33152 12.375 8.64946 12.5067 8.88388 12.7411C9.1183 12.9755 9.25 13.2935 9.25 13.625V14.625H12V9.015ZM16 12.375C15.6685 12.375 15.3505 12.5067 15.1161 12.7411C14.8817 12.9755 14.75 13.2935 14.75 13.625C14.75 13.9565 14.8817 14.2745 15.1161 14.5089C15.3505 14.7433 15.6685 14.875 16 14.875C16.3315 14.875 16.6495 14.7433 16.8839 14.5089C17.1183 14.2745 17.25 13.9565 17.25 13.625C17.25 13.2935 17.1183 12.9755 16.8839 12.7411C16.6495 12.5067 16.3315 12.375 16 12.375Z" fill="white"/>
</svg>
