<svg width="809" height="36" viewBox="0 0 809 36" fill="none" xmlns="http://www.w3.org/2000/svg">
<rect width="809" height="30" transform="translate(0 3)" fill="white"/>
<path d="M44.863 21.4854C44.922 21.462 44.9693 21.4162 44.9946 21.3581C45.0198 21.2999 45.0209 21.2341 44.9976 21.1752C44.9742 21.1164 44.9284 21.0692 44.8702 21.0441C44.8119 21.019 44.7461 21.018 44.687 21.0414L42.0162 22.0995C41.9349 22.1317 41.8464 22.141 41.7603 22.1265C41.6742 22.112 41.5937 22.0742 41.5276 22.0173C41.4615 21.9604 41.4123 21.8864 41.3854 21.8035C41.3584 21.7206 41.3547 21.6319 41.3747 21.5469C41.3946 21.462 41.4375 21.3841 41.4987 21.3217C41.5598 21.2592 41.6368 21.2147 41.7215 21.1928C41.8061 21.171 41.895 21.1726 41.9787 21.1976C42.0624 21.2227 42.1375 21.2701 42.196 21.3347C42.2163 21.3601 42.2416 21.381 42.2703 21.3963C42.2989 21.4115 42.3304 21.4208 42.3628 21.4235C42.3953 21.4261 42.4279 21.4222 42.4587 21.4119C42.4896 21.4016 42.518 21.3851 42.5423 21.3635C42.5666 21.3418 42.5862 21.3155 42.5999 21.2861C42.6137 21.2566 42.6213 21.2247 42.6223 21.1923C42.6233 21.1598 42.6176 21.1275 42.6057 21.0974C42.5938 21.0672 42.5758 21.0398 42.5529 21.0168C42.4362 20.8869 42.286 20.7915 42.1186 20.741C41.9512 20.6904 41.7731 20.6867 41.6036 20.73C41.4341 20.7734 41.2797 20.8623 41.1571 20.9871C41.0345 21.1119 40.9484 21.2677 40.9083 21.4378C40.8681 21.6078 40.8753 21.7855 40.9292 21.9515C40.9831 22.1175 41.0816 22.2656 41.2139 22.3796C41.3462 22.4935 41.5074 22.5691 41.6798 22.598C41.8523 22.6269 42.0295 22.6081 42.1922 22.5436L44.863 21.4854ZM41.8296 24.2284L44.9456 22.9939C45.0046 22.9705 45.0705 22.9715 45.1287 22.9966C45.187 23.0217 45.2328 23.0689 45.2561 23.1278C45.2794 23.1866 45.2784 23.2524 45.2531 23.3106C45.2279 23.3687 45.1805 23.4146 45.1215 23.4379L42.0056 24.6724C41.9243 24.7047 41.8535 24.7585 41.8006 24.8281C41.7478 24.8976 41.715 24.9802 41.7058 25.067C41.6967 25.1537 41.7114 25.2413 41.7486 25.3202C41.7857 25.3991 41.8438 25.4663 41.9166 25.5145C41.9893 25.5627 42.0739 25.5901 42.1612 25.5937C42.2485 25.5973 42.3351 25.577 42.4117 25.535C42.4884 25.493 42.5521 25.4308 42.5959 25.3553C42.6397 25.2798 42.662 25.1938 42.6604 25.1066C42.6578 25.0742 42.6619 25.0417 42.6723 25.0109C42.6828 24.9801 42.6994 24.9518 42.7212 24.9277C42.7429 24.9035 42.7694 24.884 42.7989 24.8704C42.8285 24.8568 42.8605 24.8493 42.893 24.8485C42.9255 24.8476 42.9578 24.8534 42.988 24.8654C43.0182 24.8774 43.0456 24.8955 43.0685 24.9184C43.0915 24.9414 43.1095 24.9688 43.1215 24.999C43.1334 25.0291 43.1391 25.0614 43.1382 25.0939C43.142 25.2684 43.0979 25.4408 43.0106 25.5922C42.9233 25.7437 42.7961 25.8684 42.6428 25.9529C42.4896 26.0374 42.3162 26.0784 42.1414 26.0714C41.9666 26.0645 41.7972 26.0098 41.6514 25.9135C41.5057 25.8171 41.3893 25.6826 41.3149 25.5248C41.2404 25.3669 41.2108 25.1916 41.2291 25.0179C41.2475 24.8442 41.3132 24.6788 41.4191 24.5396C41.5249 24.4004 41.6669 24.2928 41.8296 24.2284V24.2284ZM39.3921 22.6254C39.574 22.5539 39.7734 22.5394 39.9636 22.584C40.1538 22.6285 40.3258 22.73 40.4565 22.8748C40.4794 22.8978 40.4974 22.9252 40.5093 22.9554C40.5212 22.9856 40.5269 23.0179 40.5259 23.0503C40.5249 23.0828 40.5173 23.1147 40.5035 23.1441C40.4898 23.1735 40.4702 23.1999 40.4459 23.2215C40.4216 23.2432 40.3932 23.2596 40.3623 23.2699C40.3315 23.2802 40.2989 23.2842 40.2665 23.2815C40.2341 23.2788 40.2026 23.2695 40.1739 23.2543C40.1452 23.239 40.1199 23.2181 40.0997 23.1928C40.0411 23.1281 39.966 23.0807 39.8823 23.0557C39.7986 23.0307 39.7097 23.029 39.6251 23.0509C39.5404 23.0727 39.4634 23.1173 39.4023 23.1797C39.3411 23.2421 39.2983 23.32 39.2783 23.405C39.2583 23.4899 39.262 23.5786 39.289 23.6616C39.3159 23.7445 39.3651 23.8184 39.4312 23.8753C39.4973 23.9323 39.5778 23.97 39.6639 23.9845C39.75 23.999 39.8386 23.9897 39.9198 23.9576L44.8163 22.0177C44.8753 21.9943 44.9412 21.9952 44.9995 22.0203C45.0577 22.0454 45.1035 22.0926 45.1268 22.1515C45.1502 22.2104 45.1491 22.2761 45.1238 22.3343C45.0986 22.3925 45.0513 22.4383 44.9922 22.4617L40.0958 24.4016C39.8596 24.4951 39.5961 24.4913 39.3632 24.3909C39.1302 24.2905 38.947 24.1018 38.8536 23.8662C38.7603 23.6307 38.7646 23.3676 38.8656 23.135C38.9666 22.9023 39.156 22.719 39.3921 22.6254V22.6254Z" fill="#2F80ED"/>
<path d="M49.2015 19.4898L48.0922 16.6897L37.6917 20.8102L36.4238 17.6101L46.8243 13.4896L45.715 10.6894L51.6584 13.4256L49.2015 19.4898Z" fill="#2F80ED"/>
<path d="M188.078 19.6288C188.128 19.6681 188.191 19.6861 188.254 19.6788C188.317 19.6715 188.375 19.6394 188.414 19.5897C188.453 19.54 188.471 19.4767 188.464 19.4138C188.456 19.3508 188.424 19.2933 188.374 19.2539L186.12 17.4735C186.051 17.4193 185.999 17.3474 185.968 17.2656C185.937 17.1838 185.93 17.0952 185.946 17.0095C185.962 16.9238 186.001 16.8441 186.06 16.7792C186.118 16.7143 186.193 16.6667 186.276 16.6414C186.36 16.6161 186.449 16.6141 186.533 16.6357C186.618 16.6573 186.695 16.7016 186.757 16.7639C186.818 16.8261 186.861 16.904 186.881 16.9889C186.902 17.0738 186.898 17.1626 186.872 17.2457C186.86 17.2759 186.854 17.3083 186.856 17.3407C186.857 17.3732 186.865 17.4051 186.879 17.4345C186.892 17.4639 186.912 17.4901 186.937 17.5116C186.961 17.5332 186.989 17.5495 187.02 17.5597C187.051 17.5698 187.084 17.5736 187.116 17.5707C187.149 17.5679 187.18 17.5585 187.209 17.5431C187.237 17.5277 187.262 17.5066 187.282 17.4811C187.303 17.4557 187.317 17.4264 187.326 17.395C187.38 17.2289 187.387 17.0511 187.347 16.881C187.306 16.7108 187.22 16.5548 187.098 16.4299C186.975 16.305 186.821 16.2159 186.652 16.1724C186.482 16.1289 186.304 16.1326 186.137 16.1831C185.97 16.2335 185.82 16.3289 185.703 16.4587C185.586 16.5886 185.508 16.748 185.475 16.9197C185.443 17.0913 185.458 17.2686 185.52 17.4323C185.581 17.5961 185.686 17.7399 185.824 17.8483L188.078 19.6288ZM184.184 18.3793L186.814 20.4565C186.864 20.4959 186.896 20.5534 186.904 20.6163C186.911 20.6793 186.894 20.7426 186.854 20.7923C186.815 20.842 186.758 20.8741 186.695 20.8814C186.632 20.8887 186.568 20.8707 186.518 20.8314L183.888 18.7542C183.82 18.7 183.737 18.6657 183.651 18.6548C183.564 18.644 183.476 18.6571 183.397 18.6926C183.317 18.7282 183.249 18.7849 183.199 18.8565C183.149 18.9282 183.12 19.0122 183.115 19.0993C183.11 19.1864 183.128 19.2733 183.169 19.3507C183.21 19.428 183.271 19.4928 183.345 19.538C183.42 19.5833 183.506 19.6072 183.593 19.6073C183.681 19.6073 183.766 19.5835 183.841 19.5384C183.868 19.5199 183.898 19.5071 183.93 19.5008C183.961 19.4944 183.994 19.4946 184.026 19.5013C184.058 19.508 184.088 19.5211 184.115 19.5399C184.141 19.5586 184.164 19.5826 184.181 19.6103C184.198 19.6379 184.209 19.6688 184.214 19.701C184.218 19.7331 184.217 19.7659 184.208 19.7972C184.2 19.8286 184.185 19.8579 184.165 19.8834C184.145 19.9089 184.12 19.93 184.091 19.9454C183.942 20.0363 183.771 20.0845 183.596 20.0849C183.421 20.0853 183.25 20.0377 183.1 19.9475C182.95 19.8573 182.827 19.7277 182.746 19.573C182.664 19.4183 182.627 19.2443 182.637 19.0699C182.647 18.8955 182.705 18.7274 182.804 18.5838C182.904 18.4403 183.041 18.3267 183.2 18.2555C183.36 18.1844 183.536 18.1583 183.709 18.1801C183.883 18.2019 184.047 18.2708 184.184 18.3793V18.3793ZM184.349 15.4666C184.502 15.5882 184.615 15.7534 184.672 15.9403C184.728 16.1272 184.727 16.3269 184.667 16.5126C184.659 16.544 184.644 16.5733 184.624 16.5987C184.604 16.6242 184.579 16.6452 184.55 16.6606C184.521 16.676 184.49 16.6855 184.458 16.6883C184.425 16.6912 184.393 16.6874 184.362 16.6773C184.331 16.6671 184.302 16.6507 184.278 16.6292C184.254 16.6077 184.234 16.5814 184.22 16.5521C184.206 16.5227 184.198 16.4908 184.197 16.4583C184.196 16.4259 184.201 16.3935 184.213 16.3633C184.24 16.2802 184.243 16.1914 184.223 16.1065C184.202 16.0215 184.159 15.9437 184.098 15.8815C184.037 15.8192 183.959 15.7749 183.875 15.7533C183.79 15.7317 183.701 15.7336 183.618 15.7589C183.534 15.7842 183.459 15.8319 183.401 15.8968C183.343 15.9617 183.303 16.0413 183.287 16.1271C183.271 16.2128 183.279 16.3014 183.309 16.3832C183.34 16.4649 183.393 16.5369 183.461 16.5911L187.594 19.8552C187.644 19.8946 187.676 19.9521 187.684 20.015C187.691 20.078 187.674 20.1413 187.634 20.191C187.595 20.2407 187.538 20.2728 187.475 20.2801C187.412 20.2874 187.348 20.2694 187.298 20.2301L183.165 16.9659C182.966 16.8085 182.837 16.5786 182.807 16.3267C182.777 16.0748 182.849 15.8216 183.006 15.6228C183.163 15.4239 183.392 15.2958 183.644 15.2665C183.896 15.2372 184.15 15.3092 184.349 15.4666V15.4666Z" fill="#2F80ED"/>
<path d="M191.98 22.3822L193.847 20.0185L185.067 13.0852L187.201 10.3838L195.98 17.3172L197.847 14.9535L198.459 21.4678L191.98 22.3822Z" fill="#2F80ED"/>
<path d="M334.189 21.4854C334.248 21.462 334.295 21.4162 334.321 21.3581C334.346 21.2999 334.347 21.2341 334.324 21.1752C334.3 21.1164 334.255 21.0692 334.196 21.0441C334.138 21.019 334.072 21.018 334.013 21.0414L331.342 22.0995C331.261 22.1317 331.173 22.141 331.086 22.1265C331 22.112 330.92 22.0742 330.854 22.0173C330.788 21.9604 330.738 21.8864 330.712 21.8035C330.685 21.7206 330.681 21.6319 330.701 21.5469C330.721 21.462 330.764 21.3841 330.825 21.3217C330.886 21.2592 330.963 21.2147 331.048 21.1928C331.132 21.171 331.221 21.1726 331.305 21.1976C331.389 21.2227 331.464 21.2701 331.522 21.3347C331.543 21.3601 331.568 21.381 331.596 21.3963C331.625 21.4115 331.657 21.4208 331.689 21.4235C331.721 21.4261 331.754 21.4222 331.785 21.4119C331.816 21.4016 331.844 21.3851 331.868 21.3635C331.893 21.3418 331.912 21.3155 331.926 21.2861C331.94 21.2566 331.947 21.2247 331.948 21.1923C331.949 21.1598 331.944 21.1275 331.932 21.0974C331.92 21.0672 331.902 21.0398 331.879 21.0168C331.762 20.8869 331.612 20.7915 331.445 20.741C331.277 20.6904 331.099 20.6867 330.93 20.73C330.76 20.7734 330.606 20.8623 330.483 20.9871C330.361 21.1119 330.275 21.2677 330.234 21.4378C330.194 21.6078 330.202 21.7855 330.255 21.9515C330.309 22.1175 330.408 22.2656 330.54 22.3796C330.672 22.4935 330.834 22.5691 331.006 22.598C331.178 22.6269 331.356 22.6081 331.518 22.5436L334.189 21.4854ZM331.156 24.2284L334.272 22.9939C334.331 22.9705 334.397 22.9715 334.455 22.9966C334.513 23.0217 334.559 23.0689 334.582 23.1278C334.606 23.1866 334.605 23.2524 334.579 23.3106C334.554 23.3687 334.507 23.4146 334.448 23.4379L331.332 24.6724C331.251 24.7047 331.18 24.7585 331.127 24.8281C331.074 24.8976 331.041 24.9802 331.032 25.067C331.023 25.1537 331.038 25.2413 331.075 25.3202C331.112 25.3991 331.17 25.4663 331.243 25.5145C331.315 25.5627 331.4 25.5901 331.487 25.5937C331.575 25.5973 331.661 25.577 331.738 25.535C331.815 25.493 331.878 25.4308 331.922 25.3553C331.966 25.2798 331.988 25.1938 331.987 25.1066C331.984 25.0742 331.988 25.0417 331.998 25.0109C332.009 24.9801 332.026 24.9518 332.047 24.9277C332.069 24.9035 332.096 24.884 332.125 24.8704C332.155 24.8568 332.187 24.8493 332.219 24.8485C332.252 24.8476 332.284 24.8534 332.314 24.8654C332.344 24.8774 332.372 24.8955 332.395 24.9184C332.418 24.9414 332.436 24.9688 332.448 24.999C332.46 25.0291 332.465 25.0614 332.464 25.0939C332.468 25.2684 332.424 25.4408 332.337 25.5922C332.249 25.7437 332.122 25.8684 331.969 25.9529C331.816 26.0374 331.642 26.0784 331.468 26.0714C331.293 26.0645 331.123 26.0098 330.978 25.9135C330.832 25.8171 330.715 25.6826 330.641 25.5248C330.567 25.3669 330.537 25.1916 330.555 25.0179C330.574 24.8442 330.639 24.6788 330.745 24.5396C330.851 24.4004 330.993 24.2928 331.156 24.2284V24.2284ZM328.718 22.6254C328.9 22.5539 329.1 22.5394 329.29 22.584C329.48 22.6285 329.652 22.73 329.783 22.8748C329.806 22.8978 329.824 22.9252 329.835 22.9554C329.847 22.9856 329.853 23.0179 329.852 23.0503C329.851 23.0828 329.843 23.1147 329.83 23.1441C329.816 23.1735 329.796 23.1999 329.772 23.2215C329.748 23.2432 329.719 23.2596 329.689 23.2699C329.658 23.2802 329.625 23.2842 329.593 23.2815C329.56 23.2788 329.529 23.2695 329.5 23.2543C329.471 23.239 329.446 23.2181 329.426 23.1928C329.367 23.1281 329.292 23.0807 329.208 23.0557C329.125 23.0307 329.036 23.029 328.951 23.0509C328.867 23.0727 328.79 23.1173 328.728 23.1797C328.667 23.2421 328.624 23.32 328.604 23.405C328.584 23.4899 328.588 23.5786 328.615 23.6616C328.642 23.7445 328.691 23.8184 328.757 23.8753C328.823 23.9323 328.904 23.97 328.99 23.9845C329.076 23.999 329.165 23.9897 329.246 23.9576L334.142 22.0177C334.202 21.9943 334.267 21.9952 334.326 22.0203C334.384 22.0454 334.43 22.0926 334.453 22.1515C334.476 22.2104 334.475 22.2761 334.45 22.3343C334.425 22.3925 334.377 22.4383 334.318 22.4617L329.422 24.4016C329.186 24.4951 328.922 24.4913 328.689 24.3909C328.456 24.2905 328.273 24.1018 328.18 23.8662C328.087 23.6307 328.091 23.3676 328.192 23.135C328.293 22.9023 328.482 22.719 328.718 22.6254V22.6254Z" fill="#2F80ED"/>
<path d="M338.528 19.4898L337.418 16.6897L327.018 20.8102L325.75 17.6101L336.15 13.4896L335.041 10.6894L340.985 13.4256L338.528 19.4898Z" fill="#2F80ED"/>
<path d="M470.45 17.2075C470.462 17.2699 470.498 17.325 470.551 17.3608C470.603 17.3966 470.667 17.4101 470.73 17.3983C470.792 17.3865 470.847 17.3504 470.883 17.2979C470.918 17.2455 470.932 17.181 470.92 17.1186L470.385 14.2961C470.368 14.2102 470.376 14.1215 470.406 14.0396C470.437 13.9578 470.489 13.8859 470.558 13.8317C470.626 13.7776 470.708 13.7432 470.794 13.7324C470.881 13.7216 470.969 13.7347 471.048 13.7703C471.128 13.806 471.196 13.8628 471.246 13.9346C471.296 14.0064 471.325 14.0905 471.331 14.1777C471.336 14.2649 471.318 14.352 471.277 14.4294C471.237 14.5069 471.176 14.5717 471.102 14.617C471.073 14.6321 471.048 14.653 471.027 14.6783C471.007 14.7035 470.992 14.7327 470.983 14.764C470.974 14.7954 470.972 14.8281 470.976 14.8604C470.981 14.8926 470.992 14.9237 471.008 14.9516C471.025 14.9795 471.047 15.0037 471.073 15.0228C471.1 15.0419 471.13 15.0554 471.161 15.0625C471.193 15.0696 471.226 15.0701 471.258 15.0641C471.289 15.0581 471.32 15.0456 471.347 15.0274C471.496 14.9373 471.618 14.8078 471.699 14.653C471.781 14.4982 471.818 14.324 471.807 14.1493C471.797 13.9747 471.739 13.8062 471.639 13.6623C471.54 13.5183 471.403 13.4044 471.244 13.3329C471.084 13.2614 470.908 13.2349 470.735 13.2565C470.562 13.2781 470.398 13.3468 470.261 13.4553C470.124 13.5637 470.02 13.7077 469.959 13.8716C469.898 14.0355 469.883 14.2131 469.915 14.385L470.45 17.2075ZM468.329 13.711L468.953 17.004C468.965 17.0664 468.952 17.1309 468.916 17.1833C468.881 17.2358 468.826 17.2719 468.763 17.2837C468.701 17.2955 468.637 17.282 468.584 17.2462C468.532 17.2105 468.496 17.1553 468.484 17.0929L467.86 13.8C467.844 13.7141 467.804 13.6344 467.746 13.5694C467.688 13.5044 467.613 13.4566 467.529 13.4312C467.446 13.4058 467.357 13.4038 467.272 13.4254C467.188 13.447 467.111 13.4913 467.05 13.5537C466.989 13.616 466.946 13.6939 466.926 13.7789C466.906 13.864 466.909 13.9529 466.936 14.0361C466.963 14.1193 467.012 14.1935 467.078 14.2508C467.144 14.3081 467.224 14.3463 467.31 14.3611C467.342 14.3647 467.374 14.3748 467.402 14.3909C467.43 14.407 467.455 14.4286 467.474 14.4546C467.494 14.4805 467.508 14.5102 467.516 14.5417C467.524 14.5733 467.525 14.6062 467.52 14.6382C467.514 14.6703 467.503 14.701 467.485 14.7284C467.468 14.7557 467.445 14.7792 467.418 14.7974C467.391 14.8156 467.361 14.8281 467.329 14.8342C467.297 14.8403 467.264 14.8398 467.232 14.8327C467.06 14.8036 466.899 14.7277 466.767 14.6134C466.635 14.499 466.536 14.3506 466.482 14.1841C466.428 14.0177 466.421 13.8397 466.461 13.6693C466.5 13.499 466.586 13.3429 466.708 13.218C466.83 13.0931 466.984 13.0042 467.153 12.9609C467.322 12.9175 467.5 12.9215 467.667 12.9723C467.834 13.0231 467.984 13.1189 468.101 13.2491C468.218 13.3793 468.297 13.5391 468.329 13.711V13.711ZM470.363 11.6198C470.399 11.812 470.376 12.0105 470.296 12.1889C470.217 12.3673 470.085 12.517 469.918 12.618C469.891 12.6362 469.86 12.6487 469.829 12.6547C469.797 12.6607 469.764 12.6602 469.732 12.6531C469.701 12.646 469.671 12.6325 469.644 12.6134C469.618 12.5944 469.596 12.5701 469.579 12.5422C469.563 12.5143 469.552 12.4832 469.547 12.451C469.543 12.4187 469.545 12.386 469.554 12.3547C469.563 12.3233 469.578 12.2942 469.598 12.2689C469.619 12.2436 469.644 12.2227 469.673 12.2076C469.747 12.1623 469.808 12.0975 469.848 12.02C469.889 11.9426 469.907 11.8555 469.902 11.7683C469.896 11.6811 469.867 11.597 469.817 11.5252C469.767 11.4534 469.699 11.3966 469.619 11.3609C469.54 11.3253 469.452 11.3122 469.365 11.323C469.279 11.3338 469.197 11.3682 469.129 11.4223C469.06 11.4765 469.008 11.5484 468.977 11.6303C468.947 11.7121 468.939 11.8008 468.956 11.8867L469.937 17.0613C469.948 17.1237 469.935 17.1882 469.899 17.2406C469.864 17.2931 469.809 17.3292 469.747 17.341C469.684 17.3528 469.62 17.3393 469.568 17.3035C469.515 17.2677 469.479 17.2126 469.467 17.1502L468.486 11.9756C468.439 11.7261 468.493 11.4681 468.635 11.2582C468.778 11.0484 468.998 10.9041 469.247 10.8569C469.495 10.8097 469.753 10.8636 469.962 11.0066C470.172 11.1497 470.316 11.3703 470.363 11.6198V11.6198Z" fill="#2F80ED"/>
<path d="M471.592 21.8446L474.551 21.2836L472.467 10.2924L475.849 9.65129L477.933 20.6425L480.892 20.0816L477.083 25.4019L471.592 21.8446Z" fill="#2F80ED"/>
<path d="M616.233 21.4854C616.292 21.462 616.339 21.4162 616.365 21.3581C616.39 21.2999 616.391 21.2341 616.368 21.1752C616.344 21.1164 616.299 21.0692 616.24 21.0441C616.182 21.019 616.116 21.018 616.057 21.0414L613.386 22.0995C613.305 22.1317 613.217 22.141 613.13 22.1265C613.044 22.112 612.964 22.0742 612.898 22.0173C612.832 21.9604 612.782 21.8864 612.755 21.8035C612.729 21.7206 612.725 21.6319 612.745 21.5469C612.765 21.462 612.808 21.3841 612.869 21.3217C612.93 21.2592 613.007 21.2147 613.092 21.1928C613.176 21.171 613.265 21.1726 613.349 21.1976C613.432 21.2227 613.508 21.2701 613.566 21.3347C613.586 21.3601 613.612 21.381 613.64 21.3963C613.669 21.4115 613.701 21.4208 613.733 21.4235C613.765 21.4261 613.798 21.4222 613.829 21.4119C613.86 21.4016 613.888 21.3851 613.912 21.3635C613.937 21.3418 613.956 21.3155 613.97 21.2861C613.984 21.2566 613.991 21.2247 613.992 21.1923C613.993 21.1598 613.988 21.1275 613.976 21.0974C613.964 21.0672 613.946 21.0398 613.923 21.0168C613.806 20.8869 613.656 20.7915 613.489 20.741C613.321 20.6904 613.143 20.6867 612.974 20.73C612.804 20.7734 612.65 20.8623 612.527 20.9871C612.405 21.1119 612.319 21.2677 612.278 21.4378C612.238 21.6078 612.245 21.7855 612.299 21.9515C612.353 22.1175 612.452 22.2656 612.584 22.3796C612.716 22.4935 612.877 22.5691 613.05 22.598C613.222 22.6269 613.4 22.6081 613.562 22.5436L616.233 21.4854ZM613.2 24.2284L616.316 22.9939C616.375 22.9705 616.441 22.9715 616.499 22.9966C616.557 23.0217 616.603 23.0689 616.626 23.1278C616.65 23.1866 616.648 23.2524 616.623 23.3106C616.598 23.3687 616.551 23.4146 616.492 23.4379L613.376 24.6724C613.294 24.7047 613.224 24.7585 613.171 24.8281C613.118 24.8976 613.085 24.9802 613.076 25.067C613.067 25.1537 613.082 25.2413 613.119 25.3202C613.156 25.3991 613.214 25.4663 613.287 25.5145C613.359 25.5627 613.444 25.5901 613.531 25.5937C613.619 25.5973 613.705 25.577 613.782 25.535C613.858 25.493 613.922 25.4308 613.966 25.3553C614.01 25.2798 614.032 25.1938 614.03 25.1066C614.028 25.0742 614.032 25.0417 614.042 25.0109C614.053 24.9801 614.07 24.9518 614.091 24.9277C614.113 24.9035 614.14 24.884 614.169 24.8704C614.199 24.8568 614.231 24.8493 614.263 24.8485C614.296 24.8476 614.328 24.8534 614.358 24.8654C614.388 24.8774 614.416 24.8955 614.439 24.9184C614.462 24.9414 614.48 24.9688 614.492 24.999C614.504 25.0291 614.509 25.0614 614.508 25.0939C614.512 25.2684 614.468 25.4408 614.381 25.5922C614.293 25.7437 614.166 25.8684 614.013 25.9529C613.86 26.0374 613.686 26.0784 613.511 26.0714C613.337 26.0645 613.167 26.0098 613.022 25.9135C612.876 25.8171 612.759 25.6826 612.685 25.5248C612.611 25.3669 612.581 25.1916 612.599 25.0179C612.618 24.8442 612.683 24.6788 612.789 24.5396C612.895 24.4004 613.037 24.2928 613.2 24.2284V24.2284ZM610.762 22.6254C610.944 22.5539 611.144 22.5394 611.334 22.584C611.524 22.6285 611.696 22.73 611.827 22.8748C611.85 22.8978 611.867 22.9252 611.879 22.9554C611.891 22.9856 611.897 23.0179 611.896 23.0503C611.895 23.0828 611.887 23.1147 611.874 23.1441C611.86 23.1735 611.84 23.1999 611.816 23.2215C611.792 23.2432 611.763 23.2596 611.732 23.2699C611.702 23.2802 611.669 23.2842 611.637 23.2815C611.604 23.2788 611.573 23.2695 611.544 23.2543C611.515 23.239 611.49 23.2181 611.47 23.1928C611.411 23.1281 611.336 23.0807 611.252 23.0557C611.169 23.0307 611.08 23.029 610.995 23.0509C610.911 23.0727 610.834 23.1173 610.772 23.1797C610.711 23.2421 610.668 23.32 610.648 23.405C610.628 23.4899 610.632 23.5786 610.659 23.6616C610.686 23.7445 610.735 23.8184 610.801 23.8753C610.867 23.9323 610.948 23.97 611.034 23.9845C611.12 23.999 611.209 23.9897 611.29 23.9576L616.186 22.0177C616.245 21.9943 616.311 21.9952 616.37 22.0203C616.428 22.0454 616.474 22.0926 616.497 22.1515C616.52 22.2104 616.519 22.2761 616.494 22.3343C616.469 22.3925 616.421 22.4383 616.362 22.4617L611.466 24.4016C611.23 24.4951 610.966 24.4913 610.733 24.3909C610.5 24.2905 610.317 24.1018 610.224 23.8662C610.13 23.6307 610.135 23.3676 610.236 23.135C610.337 22.9023 610.526 22.719 610.762 22.6254V22.6254Z" fill="#2F80ED"/>
<path d="M620.572 19.4898L619.462 16.6897L609.062 20.8102L607.794 17.6101L618.194 13.4896L617.085 10.6894L623.029 13.4256L620.572 19.4898Z" fill="#2F80ED"/>
<path d="M762.886 14.5199C762.83 14.5495 762.788 14.6001 762.769 14.6607C762.75 14.7212 762.756 14.7867 762.786 14.8428C762.815 14.8988 762.866 14.9408 762.926 14.9595C762.987 14.9782 763.053 14.9721 763.109 14.9425L765.651 13.6041C765.728 13.5634 765.815 13.5446 765.902 13.5498C765.989 13.555 766.073 13.5839 766.145 13.6334C766.217 13.6829 766.274 13.7512 766.31 13.8307C766.345 13.9102 766.358 13.9981 766.348 14.0847C766.337 14.1713 766.303 14.2533 766.249 14.3219C766.195 14.3906 766.123 14.4431 766.041 14.4739C765.959 14.5047 765.871 14.5126 765.785 14.4967C765.699 14.4808 765.619 14.4417 765.554 14.3837C765.531 14.3607 765.504 14.3426 765.473 14.3305C765.443 14.3184 765.411 14.3126 765.379 14.3134C765.346 14.3142 765.314 14.3216 765.284 14.3352C765.255 14.3487 765.228 14.3682 765.207 14.3923C765.185 14.4164 765.168 14.4447 765.158 14.4754C765.147 14.5062 765.143 14.5387 765.145 14.5711C765.148 14.6034 765.157 14.635 765.172 14.6637C765.187 14.6924 765.208 14.7177 765.233 14.7381C765.363 14.8547 765.523 14.9334 765.695 14.9657C765.866 14.9981 766.044 14.9827 766.208 14.9214C766.372 14.8601 766.516 14.7551 766.624 14.6179C766.733 14.4807 766.801 14.3165 766.823 14.1432C766.845 13.9698 766.819 13.794 766.747 13.6347C766.676 13.4754 766.562 13.3387 766.418 13.2396C766.275 13.1405 766.106 13.0826 765.932 13.0724C765.757 13.0621 765.583 13.0999 765.428 13.1815L762.886 14.5199ZM765.608 11.4675L762.642 13.029C762.586 13.0586 762.52 13.0647 762.46 13.046C762.399 13.0273 762.349 12.9853 762.319 12.9292C762.29 12.8732 762.284 12.8077 762.303 12.7471C762.321 12.6866 762.364 12.636 762.42 12.6064L765.385 11.0448C765.463 11.0041 765.527 10.943 765.572 10.8681C765.617 10.7933 765.641 10.7077 765.641 10.6204C765.641 10.5332 765.617 10.4477 765.571 10.3733C765.526 10.2988 765.461 10.2383 765.383 10.1981C765.306 10.158 765.219 10.1398 765.132 10.1456C765.045 10.1513 764.961 10.1808 764.889 10.2308C764.817 10.2808 764.761 10.3494 764.725 10.4292C764.69 10.509 764.677 10.5969 764.688 10.6835C764.694 10.7153 764.693 10.7481 764.686 10.7798C764.679 10.8115 764.666 10.8415 764.646 10.8678C764.627 10.8942 764.603 10.9164 764.575 10.9331C764.547 10.9498 764.516 10.9606 764.484 10.965C764.452 10.9693 764.419 10.9671 764.388 10.9584C764.357 10.9496 764.327 10.9346 764.302 10.9143C764.277 10.8939 764.256 10.8686 764.241 10.8399C764.226 10.8112 764.217 10.7797 764.214 10.7473C764.191 10.5742 764.217 10.3981 764.287 10.2381C764.358 10.0782 764.471 9.94052 764.614 9.8401C764.758 9.73968 764.926 9.68033 765.1 9.6685C765.275 9.65667 765.449 9.69281 765.604 9.77301C765.759 9.8532 765.89 9.97437 765.981 10.1234C766.072 10.2724 766.12 10.4435 766.12 10.6181C766.121 10.7928 766.073 10.9643 765.983 11.114C765.892 11.2638 765.763 11.386 765.608 11.4675V11.4675ZM768.203 12.7998C768.03 12.8904 767.833 12.9262 767.639 12.9023C767.446 12.8784 767.264 12.7959 767.118 12.666C767.093 12.6456 767.072 12.6203 767.057 12.5915C767.042 12.5628 767.033 12.5313 767.03 12.4989C767.028 12.4666 767.032 12.434 767.043 12.4033C767.053 12.3725 767.07 12.3442 767.092 12.3201C767.113 12.296 767.14 12.2766 767.169 12.263C767.199 12.2495 767.231 12.2421 767.264 12.2413C767.296 12.2405 767.328 12.2463 767.359 12.2584C767.389 12.2705 767.416 12.2886 767.439 12.3116C767.504 12.3696 767.584 12.4087 767.67 12.4246C767.756 12.4405 767.844 12.4326 767.926 12.4018C768.008 12.371 768.08 12.3184 768.134 12.2498C768.188 12.1812 768.222 12.0991 768.233 12.0125C768.244 11.9259 768.23 11.8381 768.195 11.7586C768.159 11.679 768.102 11.6108 768.03 11.5613C767.958 11.5117 767.874 11.4828 767.787 11.4777C767.7 11.4725 767.613 11.4913 767.536 11.5319L762.875 13.9858C762.819 14.0153 762.754 14.0214 762.693 14.0027C762.633 13.984 762.582 13.942 762.552 13.886C762.523 13.8299 762.517 13.7645 762.536 13.7039C762.555 13.6434 762.597 13.5927 762.653 13.5631L767.313 11.1093C767.538 10.991 767.8 10.9666 768.043 11.0414C768.285 11.1162 768.487 11.2842 768.605 11.5084C768.724 11.7325 768.747 11.9945 768.672 12.2367C768.597 12.4789 768.428 12.6814 768.203 12.7998V12.7998Z" fill="#2F80ED"/>
<path d="M758.787 16.9693L760.19 19.6343L770.089 14.4222L771.692 17.4679L761.794 22.6801L763.197 25.3451L756.994 23.2621L758.787 16.9693Z" fill="#2F80ED"/>
</svg>
