<svg width="809" height="36" viewBox="0 0 809 36" fill="none" xmlns="http://www.w3.org/2000/svg">
<path d="M44.8625 21.4854C44.9215 21.462 44.9688 21.4162 44.9941 21.3581C45.0193 21.2999 45.0204 21.2341 44.9971 21.1752C44.9737 21.1164 44.9279 21.0692 44.8697 21.0441C44.8115 21.019 44.7456 21.018 44.6865 21.0414L42.0157 22.0995C41.9345 22.1317 41.846 22.141 41.7598 22.1265C41.6737 22.112 41.5932 22.0742 41.5271 22.0173C41.461 21.9604 41.4118 21.8864 41.3849 21.8035C41.3579 21.7206 41.3542 21.6319 41.3742 21.5469C41.3942 21.462 41.437 21.3841 41.4982 21.3217C41.5593 21.2592 41.6363 21.2147 41.721 21.1928C41.8056 21.171 41.8946 21.1726 41.9782 21.1976C42.0619 21.2227 42.137 21.2701 42.1956 21.3347C42.2158 21.3601 42.2411 21.381 42.2698 21.3963C42.2985 21.4115 42.33 21.4208 42.3624 21.4235C42.3948 21.4261 42.4274 21.4222 42.4582 21.4119C42.4891 21.4016 42.5175 21.3851 42.5418 21.3635C42.5661 21.3418 42.5857 21.3155 42.5995 21.2861C42.6132 21.2566 42.6208 21.2247 42.6218 21.1923C42.6228 21.1598 42.6172 21.1275 42.6052 21.0974C42.5933 21.0672 42.5753 21.0398 42.5524 21.0168C42.4357 20.8869 42.2855 20.7915 42.1181 20.741C41.9508 20.6904 41.7726 20.6867 41.6031 20.73C41.4336 20.7734 41.2792 20.8623 41.1566 20.9871C41.034 21.1119 40.9479 21.2677 40.9078 21.4378C40.8676 21.6078 40.8748 21.7855 40.9287 21.9515C40.9826 22.1175 41.0811 22.2656 41.2134 22.3796C41.3457 22.4935 41.5069 22.5691 41.6794 22.598C41.8518 22.6269 42.029 22.6081 42.1917 22.5436L44.8625 21.4854ZM41.8292 24.2284L44.9451 22.9939C45.0041 22.9705 45.07 22.9715 45.1282 22.9966C45.1865 23.0217 45.2323 23.0689 45.2556 23.1278C45.279 23.1866 45.2779 23.2524 45.2526 23.3106C45.2274 23.3687 45.18 23.4146 45.121 23.4379L42.0051 24.6724C41.9238 24.7047 41.853 24.7585 41.8001 24.8281C41.7473 24.8976 41.7145 24.9802 41.7053 25.067C41.6962 25.1537 41.711 25.2413 41.7481 25.3202C41.7853 25.3991 41.8433 25.4663 41.9161 25.5145C41.9888 25.5627 42.0734 25.5901 42.1607 25.5937C42.248 25.5973 42.3346 25.577 42.4113 25.535C42.4879 25.493 42.5516 25.4308 42.5954 25.3553C42.6392 25.2798 42.6615 25.1938 42.6599 25.1066C42.6573 25.0742 42.6614 25.0417 42.6718 25.0109C42.6823 24.9801 42.6989 24.9518 42.7207 24.9277C42.7424 24.9035 42.7689 24.884 42.7984 24.8704C42.828 24.8568 42.86 24.8493 42.8925 24.8485C42.925 24.8476 42.9573 24.8534 42.9875 24.8654C43.0177 24.8774 43.0451 24.8955 43.068 24.9184C43.091 24.9414 43.109 24.9688 43.121 24.999C43.1329 25.0291 43.1386 25.0614 43.1377 25.0939C43.1415 25.2684 43.0974 25.4408 43.0101 25.5922C42.9228 25.7437 42.7956 25.8684 42.6423 25.9529C42.4891 26.0374 42.3157 26.0784 42.1409 26.0714C41.9661 26.0645 41.7967 26.0098 41.651 25.9135C41.5052 25.8171 41.3888 25.6826 41.3144 25.5248C41.2399 25.3669 41.2103 25.1916 41.2287 25.0179C41.247 24.8442 41.3127 24.6788 41.4186 24.5396C41.5244 24.4004 41.6664 24.2928 41.8292 24.2284V24.2284ZM39.3916 22.6254C39.5735 22.5539 39.7729 22.5394 39.9631 22.584C40.1533 22.6285 40.3253 22.73 40.456 22.8748C40.4789 22.8978 40.4969 22.9252 40.5088 22.9554C40.5208 22.9856 40.5264 23.0179 40.5254 23.0503C40.5244 23.0828 40.5168 23.1147 40.5031 23.1441C40.4893 23.1735 40.4697 23.1999 40.4454 23.2215C40.4211 23.2432 40.3927 23.2596 40.3618 23.2699C40.331 23.2802 40.2984 23.2842 40.266 23.2815C40.2336 23.2788 40.2021 23.2695 40.1734 23.2543C40.1447 23.239 40.1195 23.2181 40.0992 23.1928C40.0406 23.1281 39.9655 23.0807 39.8818 23.0557C39.7982 23.0307 39.7092 23.029 39.6246 23.0509C39.54 23.0727 39.4629 23.1173 39.4018 23.1797C39.3406 23.2421 39.2978 23.32 39.2778 23.405C39.2578 23.4899 39.2615 23.5786 39.2885 23.6616C39.3154 23.7445 39.3646 23.8184 39.4307 23.8753C39.4968 23.9323 39.5773 23.97 39.6634 23.9845C39.7496 23.999 39.8381 23.9897 39.9193 23.9576L44.8158 22.0177C44.8749 21.9943 44.9407 21.9952 44.999 22.0203C45.0572 22.0454 45.103 22.0926 45.1263 22.1515C45.1497 22.2104 45.1486 22.2761 45.1234 22.3343C45.0981 22.3925 45.0508 22.4383 44.9917 22.4617L40.0953 24.4016C39.8592 24.4951 39.5956 24.4913 39.3627 24.3909C39.1298 24.2905 38.9465 24.1018 38.8532 23.8662C38.7598 23.6307 38.7641 23.3676 38.8651 23.135C38.9661 22.9023 39.1555 22.719 39.3916 22.6254V22.6254Z" fill="#56CCF2"/>
<path d="M49.201 19.49L48.0917 16.6898L37.6912 20.8103L36.4233 17.6102L46.8238 13.4897L45.7145 10.6895L51.658 13.4257L49.201 19.49Z" fill="#56CCF2"/>
<path d="M188.078 19.6288C188.128 19.6681 188.191 19.6861 188.254 19.6788C188.317 19.6715 188.375 19.6394 188.414 19.5897C188.453 19.54 188.471 19.4767 188.464 19.4138C188.456 19.3508 188.424 19.2933 188.374 19.2539L186.12 17.4735C186.051 17.4193 185.999 17.3474 185.968 17.2656C185.937 17.1838 185.93 17.0952 185.946 17.0095C185.962 16.9238 186.001 16.8441 186.06 16.7792C186.118 16.7143 186.193 16.6667 186.276 16.6414C186.36 16.6161 186.449 16.6141 186.533 16.6357C186.618 16.6573 186.695 16.7016 186.757 16.7639C186.818 16.8261 186.861 16.904 186.881 16.9889C186.902 17.0738 186.898 17.1626 186.872 17.2457C186.86 17.2759 186.854 17.3083 186.856 17.3407C186.857 17.3732 186.865 17.4051 186.879 17.4345C186.892 17.4639 186.912 17.4901 186.937 17.5116C186.961 17.5332 186.989 17.5495 187.02 17.5597C187.051 17.5698 187.084 17.5736 187.116 17.5707C187.149 17.5679 187.18 17.5585 187.209 17.5431C187.237 17.5277 187.262 17.5066 187.282 17.4811C187.303 17.4557 187.317 17.4264 187.326 17.395C187.38 17.2289 187.387 17.0511 187.347 16.881C187.306 16.7108 187.22 16.5548 187.098 16.4299C186.975 16.305 186.821 16.2159 186.652 16.1724C186.482 16.1289 186.304 16.1326 186.137 16.1831C185.97 16.2335 185.82 16.3289 185.703 16.4587C185.586 16.5886 185.508 16.748 185.475 16.9197C185.443 17.0913 185.458 17.2686 185.52 17.4323C185.581 17.5961 185.686 17.7399 185.824 17.8483L188.078 19.6288ZM184.184 18.3793L186.814 20.4565C186.864 20.4959 186.896 20.5534 186.904 20.6163C186.911 20.6793 186.894 20.7426 186.854 20.7923C186.815 20.842 186.758 20.8741 186.695 20.8814C186.632 20.8887 186.568 20.8707 186.518 20.8314L183.888 18.7542C183.82 18.7 183.737 18.6657 183.651 18.6548C183.564 18.644 183.476 18.6571 183.397 18.6926C183.317 18.7282 183.249 18.7849 183.199 18.8565C183.149 18.9282 183.12 19.0122 183.115 19.0993C183.11 19.1864 183.128 19.2733 183.169 19.3507C183.21 19.428 183.271 19.4928 183.345 19.538C183.42 19.5833 183.506 19.6072 183.593 19.6073C183.681 19.6073 183.766 19.5835 183.841 19.5384C183.868 19.5199 183.898 19.5071 183.93 19.5008C183.961 19.4944 183.994 19.4946 184.026 19.5013C184.058 19.508 184.088 19.5211 184.115 19.5399C184.141 19.5586 184.164 19.5826 184.181 19.6103C184.198 19.6379 184.209 19.6688 184.214 19.701C184.218 19.7331 184.217 19.7659 184.208 19.7972C184.2 19.8286 184.185 19.8579 184.165 19.8834C184.145 19.9089 184.12 19.93 184.091 19.9454C183.942 20.0363 183.771 20.0845 183.596 20.0849C183.421 20.0853 183.25 20.0377 183.1 19.9475C182.95 19.8573 182.827 19.7277 182.746 19.573C182.664 19.4183 182.627 19.2443 182.637 19.0699C182.647 18.8955 182.705 18.7274 182.804 18.5838C182.904 18.4403 183.041 18.3267 183.2 18.2555C183.36 18.1844 183.536 18.1583 183.709 18.1801C183.883 18.2019 184.047 18.2708 184.184 18.3793V18.3793ZM184.349 15.4666C184.502 15.5882 184.615 15.7534 184.672 15.9403C184.728 16.1272 184.727 16.3269 184.667 16.5126C184.659 16.544 184.644 16.5733 184.624 16.5987C184.604 16.6242 184.579 16.6452 184.55 16.6606C184.521 16.676 184.49 16.6855 184.458 16.6883C184.425 16.6912 184.393 16.6874 184.362 16.6773C184.331 16.6671 184.302 16.6507 184.278 16.6292C184.254 16.6077 184.234 16.5814 184.22 16.5521C184.206 16.5227 184.198 16.4908 184.197 16.4583C184.196 16.4259 184.201 16.3935 184.213 16.3633C184.24 16.2802 184.243 16.1914 184.223 16.1065C184.202 16.0215 184.159 15.9437 184.098 15.8815C184.037 15.8192 183.959 15.7749 183.875 15.7533C183.79 15.7317 183.701 15.7336 183.618 15.7589C183.534 15.7842 183.459 15.8319 183.401 15.8968C183.343 15.9617 183.303 16.0413 183.287 16.1271C183.271 16.2128 183.279 16.3014 183.309 16.3832C183.34 16.4649 183.393 16.5369 183.461 16.5911L187.594 19.8552C187.644 19.8946 187.676 19.9521 187.684 20.015C187.691 20.078 187.674 20.1413 187.634 20.191C187.595 20.2407 187.538 20.2728 187.475 20.2801C187.412 20.2874 187.348 20.2694 187.298 20.2301L183.165 16.9659C182.966 16.8085 182.837 16.5786 182.807 16.3267C182.777 16.0748 182.849 15.8216 183.006 15.6228C183.163 15.4239 183.392 15.2958 183.644 15.2665C183.896 15.2372 184.15 15.3092 184.349 15.4666V15.4666Z" fill="#56CCF2"/>
<path d="M191.98 22.3821L193.847 20.0184L185.067 13.0851L187.201 10.3837L195.98 17.317L197.847 14.9534L198.459 21.4677L191.98 22.3821Z" fill="#56CCF2"/>
<path d="M334.189 21.4854C334.248 21.462 334.295 21.4162 334.32 21.3581C334.345 21.2999 334.347 21.2341 334.323 21.1752C334.3 21.1164 334.254 21.0692 334.196 21.0441C334.138 21.019 334.072 21.018 334.013 21.0414L331.342 22.0995C331.261 22.1317 331.172 22.141 331.086 22.1265C331 22.112 330.919 22.0742 330.853 22.0173C330.787 21.9604 330.738 21.8864 330.711 21.8035C330.684 21.7206 330.68 21.6319 330.7 21.5469C330.72 21.462 330.763 21.3841 330.824 21.3217C330.885 21.2592 330.963 21.2147 331.047 21.1928C331.132 21.171 331.221 21.1726 331.304 21.1976C331.388 21.2227 331.463 21.2701 331.522 21.3347C331.542 21.3601 331.567 21.381 331.596 21.3963C331.625 21.4115 331.656 21.4208 331.689 21.4235C331.721 21.4261 331.754 21.4222 331.784 21.4119C331.815 21.4016 331.844 21.3851 331.868 21.3635C331.892 21.3418 331.912 21.3155 331.926 21.2861C331.939 21.2566 331.947 21.2247 331.948 21.1923C331.949 21.1598 331.943 21.1275 331.931 21.0974C331.919 21.0672 331.901 21.0398 331.879 21.0168C331.762 20.8869 331.612 20.7915 331.444 20.741C331.277 20.6904 331.099 20.6867 330.929 20.73C330.76 20.7734 330.605 20.8623 330.483 20.9871C330.36 21.1119 330.274 21.2677 330.234 21.4378C330.194 21.6078 330.201 21.7855 330.255 21.9515C330.309 22.1175 330.407 22.2656 330.54 22.3796C330.672 22.4935 330.833 22.5691 331.006 22.598C331.178 22.6269 331.355 22.6081 331.518 22.5436L334.189 21.4854ZM331.155 24.2284L334.271 22.9939C334.33 22.9705 334.396 22.9715 334.454 22.9966C334.513 23.0217 334.558 23.0689 334.582 23.1278C334.605 23.1866 334.604 23.2524 334.579 23.3106C334.554 23.3687 334.506 23.4146 334.447 23.4379L331.331 24.6724C331.25 24.7047 331.179 24.7585 331.126 24.8281C331.073 24.8976 331.041 24.9802 331.032 25.067C331.022 25.1537 331.037 25.2413 331.074 25.3202C331.111 25.3991 331.17 25.4663 331.242 25.5145C331.315 25.5627 331.4 25.5901 331.487 25.5937C331.574 25.5973 331.661 25.577 331.737 25.535C331.814 25.493 331.878 25.4308 331.922 25.3553C331.965 25.2798 331.988 25.1938 331.986 25.1066C331.983 25.0742 331.988 25.0417 331.998 25.0109C332.008 24.9801 332.025 24.9518 332.047 24.9277C332.069 24.9035 332.095 24.884 332.125 24.8704C332.154 24.8568 332.186 24.8493 332.219 24.8485C332.251 24.8476 332.284 24.8534 332.314 24.8654C332.344 24.8774 332.371 24.8955 332.394 24.9184C332.417 24.9414 332.435 24.9688 332.447 24.999C332.459 25.0291 332.465 25.0614 332.464 25.0939C332.468 25.2684 332.424 25.4408 332.336 25.5922C332.249 25.7437 332.122 25.8684 331.969 25.9529C331.815 26.0374 331.642 26.0784 331.467 26.0714C331.292 26.0645 331.123 26.0098 330.977 25.9135C330.831 25.8171 330.715 25.6826 330.641 25.5248C330.566 25.3669 330.536 25.1916 330.555 25.0179C330.573 24.8442 330.639 24.6788 330.745 24.5396C330.851 24.4004 330.993 24.2928 331.155 24.2284V24.2284ZM328.718 22.6254C328.9 22.5539 329.099 22.5394 329.289 22.584C329.479 22.6285 329.651 22.73 329.782 22.8748C329.805 22.8978 329.823 22.9252 329.835 22.9554C329.847 22.9856 329.853 23.0179 329.852 23.0503C329.851 23.0828 329.843 23.1147 329.829 23.1441C329.815 23.1735 329.796 23.1999 329.772 23.2215C329.747 23.2432 329.719 23.2596 329.688 23.2699C329.657 23.2802 329.625 23.2842 329.592 23.2815C329.56 23.2788 329.528 23.2695 329.5 23.2543C329.471 23.239 329.446 23.2181 329.425 23.1928C329.367 23.1281 329.292 23.0807 329.208 23.0557C329.124 23.0307 329.035 23.029 328.951 23.0509C328.866 23.0727 328.789 23.1173 328.728 23.1797C328.667 23.2421 328.624 23.32 328.604 23.405C328.584 23.4899 328.588 23.5786 328.615 23.6616C328.642 23.7445 328.691 23.8184 328.757 23.8753C328.823 23.9323 328.903 23.97 328.99 23.9845C329.076 23.999 329.164 23.9897 329.246 23.9576L334.142 22.0177C334.201 21.9943 334.267 21.9952 334.325 22.0203C334.383 22.0454 334.429 22.0926 334.453 22.1515C334.476 22.2104 334.475 22.2761 334.45 22.3343C334.424 22.3925 334.377 22.4383 334.318 22.4617L329.421 24.4016C329.185 24.4951 328.922 24.4913 328.689 24.3909C328.456 24.2905 328.273 24.1018 328.179 23.8662C328.086 23.6307 328.09 23.3676 328.191 23.135C328.292 22.9023 328.482 22.719 328.718 22.6254V22.6254Z" fill="#56CCF2"/>
<path d="M338.527 19.49L337.418 16.6898L327.017 20.8103L325.75 17.6102L336.15 13.4897L335.041 10.6895L340.984 13.4257L338.527 19.49Z" fill="#56CCF2"/>
<path d="M470.451 17.2075C470.463 17.2699 470.499 17.325 470.551 17.3608C470.604 17.3966 470.668 17.4101 470.73 17.3983C470.792 17.3865 470.847 17.3504 470.883 17.2979C470.919 17.2455 470.932 17.181 470.92 17.1186L470.385 14.2961C470.369 14.2102 470.376 14.1215 470.407 14.0396C470.437 13.9578 470.49 13.8859 470.558 13.8317C470.626 13.7776 470.708 13.7432 470.795 13.7324C470.881 13.7216 470.969 13.7347 471.049 13.7703C471.129 13.806 471.197 13.8628 471.247 13.9346C471.296 14.0064 471.326 14.0905 471.331 14.1777C471.337 14.2649 471.318 14.352 471.278 14.4294C471.238 14.5069 471.177 14.5717 471.102 14.617C471.074 14.6321 471.048 14.653 471.028 14.6783C471.007 14.7035 470.992 14.7327 470.984 14.764C470.975 14.7954 470.973 14.8281 470.977 14.8604C470.981 14.8926 470.992 14.9237 471.009 14.9516C471.025 14.9795 471.047 15.0037 471.074 15.0228C471.1 15.0419 471.13 15.0554 471.162 15.0625C471.193 15.0696 471.226 15.0701 471.258 15.0641C471.29 15.0581 471.32 15.0456 471.347 15.0274C471.497 14.9373 471.619 14.8078 471.7 14.653C471.781 14.4982 471.818 14.324 471.808 14.1493C471.797 13.9747 471.739 13.8062 471.64 13.6623C471.54 13.5183 471.403 13.4044 471.244 13.3329C471.085 13.2614 470.909 13.2349 470.736 13.2565C470.562 13.2781 470.398 13.3468 470.262 13.4553C470.125 13.5637 470.02 13.7077 469.959 13.8716C469.898 14.0355 469.883 14.2131 469.916 14.385L470.451 17.2075ZM468.33 13.711L468.954 17.004C468.966 17.0664 468.952 17.1309 468.917 17.1833C468.881 17.2358 468.826 17.2719 468.764 17.2837C468.702 17.2955 468.637 17.282 468.585 17.2462C468.533 17.2105 468.497 17.1553 468.485 17.0929L467.86 13.8C467.844 13.7141 467.805 13.6344 467.746 13.5694C467.688 13.5044 467.613 13.4566 467.53 13.4312C467.446 13.4058 467.357 13.4038 467.273 13.4254C467.188 13.447 467.111 13.4913 467.05 13.5537C466.989 13.616 466.946 13.6939 466.926 13.7789C466.906 13.864 466.91 13.9529 466.937 14.0361C466.964 14.1193 467.013 14.1935 467.078 14.2508C467.144 14.3081 467.225 14.3463 467.311 14.3611C467.343 14.3647 467.374 14.3748 467.402 14.3909C467.43 14.407 467.455 14.4286 467.475 14.4546C467.494 14.4805 467.509 14.5102 467.516 14.5417C467.524 14.5733 467.525 14.6062 467.52 14.6382C467.515 14.6703 467.503 14.701 467.486 14.7284C467.468 14.7557 467.445 14.7792 467.418 14.7974C467.391 14.8156 467.361 14.8281 467.329 14.8342C467.297 14.8403 467.265 14.8398 467.233 14.8327C467.061 14.8036 466.9 14.7277 466.768 14.6134C466.635 14.499 466.537 14.3506 466.483 14.1841C466.429 14.0177 466.421 13.8397 466.461 13.6693C466.501 13.499 466.586 13.3429 466.709 13.218C466.831 13.0931 466.985 13.0042 467.154 12.9609C467.323 12.9175 467.501 12.9215 467.668 12.9723C467.835 13.0231 467.985 13.1189 468.102 13.2491C468.218 13.3793 468.297 13.5391 468.33 13.711V13.711ZM470.364 11.6198C470.4 11.812 470.376 12.0105 470.297 12.1889C470.217 12.3673 470.085 12.517 469.918 12.618C469.891 12.6362 469.861 12.6487 469.829 12.6547C469.797 12.6607 469.764 12.6602 469.733 12.6531C469.701 12.646 469.671 12.6325 469.645 12.6134C469.619 12.5944 469.596 12.5701 469.58 12.5422C469.563 12.5143 469.552 12.4832 469.548 12.451C469.544 12.4187 469.546 12.386 469.555 12.3547C469.563 12.3233 469.578 12.2942 469.599 12.2689C469.619 12.2436 469.645 12.2227 469.673 12.2076C469.748 12.1623 469.809 12.0975 469.849 12.02C469.889 11.9426 469.908 11.8555 469.902 11.7683C469.897 11.6811 469.867 11.597 469.818 11.5252C469.768 11.4534 469.7 11.3966 469.62 11.3609C469.54 11.3253 469.452 11.3122 469.366 11.323C469.279 11.3338 469.197 11.3682 469.129 11.4223C469.061 11.4765 469.008 11.5484 468.978 11.6303C468.947 11.7121 468.94 11.8008 468.956 11.8867L469.937 17.0613C469.949 17.1237 469.936 17.1882 469.9 17.2406C469.864 17.2931 469.809 17.3292 469.747 17.341C469.685 17.3528 469.62 17.3393 469.568 17.3035C469.516 17.2677 469.48 17.2126 469.468 17.1502L468.487 11.9756C468.44 11.7261 468.493 11.4681 468.636 11.2582C468.778 11.0484 468.998 10.9041 469.247 10.8569C469.496 10.8097 469.753 10.8636 469.963 11.0066C470.172 11.1497 470.317 11.3703 470.364 11.6198V11.6198Z" fill="#56CCF2"/>
<path d="M471.592 21.8446L474.552 21.2836L472.468 10.2924L475.85 9.65129L477.933 20.6425L480.893 20.0816L477.084 25.4019L471.592 21.8446Z" fill="#56CCF2"/>
<path d="M616.233 21.4854C616.292 21.462 616.339 21.4162 616.364 21.3581C616.389 21.2999 616.391 21.2341 616.367 21.1752C616.344 21.1164 616.298 21.0692 616.24 21.0441C616.182 21.019 616.116 21.018 616.057 21.0414L613.386 22.0995C613.305 22.1317 613.216 22.141 613.13 22.1265C613.044 22.112 612.963 22.0742 612.897 22.0173C612.831 21.9604 612.782 21.8864 612.755 21.8035C612.728 21.7206 612.724 21.6319 612.744 21.5469C612.764 21.462 612.807 21.3841 612.868 21.3217C612.929 21.2592 613.006 21.2147 613.091 21.1928C613.176 21.171 613.265 21.1726 613.348 21.1976C613.432 21.2227 613.507 21.2701 613.566 21.3347C613.586 21.3601 613.611 21.381 613.64 21.3963C613.669 21.4115 613.7 21.4208 613.732 21.4235C613.765 21.4261 613.798 21.4222 613.828 21.4119C613.859 21.4016 613.888 21.3851 613.912 21.3635C613.936 21.3418 613.956 21.3155 613.97 21.2861C613.983 21.2566 613.991 21.2247 613.992 21.1923C613.993 21.1598 613.987 21.1275 613.975 21.0974C613.963 21.0672 613.945 21.0398 613.923 21.0168C613.806 20.8869 613.656 20.7915 613.488 20.741C613.321 20.6904 613.143 20.6867 612.973 20.73C612.804 20.7734 612.649 20.8623 612.527 20.9871C612.404 21.1119 612.318 21.2677 612.278 21.4378C612.238 21.6078 612.245 21.7855 612.299 21.9515C612.353 22.1175 612.451 22.2656 612.584 22.3796C612.716 22.4935 612.877 22.5691 613.049 22.598C613.222 22.6269 613.399 22.6081 613.562 22.5436L616.233 21.4854ZM613.199 24.2284L616.315 22.9939C616.374 22.9705 616.44 22.9715 616.498 22.9966C616.557 23.0217 616.602 23.0689 616.626 23.1278C616.649 23.1866 616.648 23.2524 616.623 23.3106C616.598 23.3687 616.55 23.4146 616.491 23.4379L613.375 24.6724C613.294 24.7047 613.223 24.7585 613.17 24.8281C613.117 24.8976 613.085 24.9802 613.075 25.067C613.066 25.1537 613.081 25.2413 613.118 25.3202C613.155 25.3991 613.213 25.4663 613.286 25.5145C613.359 25.5627 613.444 25.5901 613.531 25.5937C613.618 25.5973 613.705 25.577 613.781 25.535C613.858 25.493 613.922 25.4308 613.966 25.3553C614.009 25.2798 614.032 25.1938 614.03 25.1066C614.027 25.0742 614.032 25.0417 614.042 25.0109C614.052 24.9801 614.069 24.9518 614.091 24.9277C614.113 24.9035 614.139 24.884 614.169 24.8704C614.198 24.8568 614.23 24.8493 614.263 24.8485C614.295 24.8476 614.327 24.8534 614.358 24.8654C614.388 24.8774 614.415 24.8955 614.438 24.9184C614.461 24.9414 614.479 24.9688 614.491 24.999C614.503 25.0291 614.509 25.0614 614.508 25.0939C614.512 25.2684 614.468 25.4408 614.38 25.5922C614.293 25.7437 614.166 25.8684 614.012 25.9529C613.859 26.0374 613.686 26.0784 613.511 26.0714C613.336 26.0645 613.167 26.0098 613.021 25.9135C612.875 25.8171 612.759 25.6826 612.685 25.5248C612.61 25.3669 612.58 25.1916 612.599 25.0179C612.617 24.8442 612.683 24.6788 612.789 24.5396C612.895 24.4004 613.037 24.2928 613.199 24.2284V24.2284ZM610.762 22.6254C610.944 22.5539 611.143 22.5394 611.333 22.584C611.523 22.6285 611.695 22.73 611.826 22.8748C611.849 22.8978 611.867 22.9252 611.879 22.9554C611.891 22.9856 611.897 23.0179 611.896 23.0503C611.895 23.0828 611.887 23.1147 611.873 23.1441C611.859 23.1735 611.84 23.1999 611.816 23.2215C611.791 23.2432 611.763 23.2596 611.732 23.2699C611.701 23.2802 611.668 23.2842 611.636 23.2815C611.604 23.2788 611.572 23.2695 611.544 23.2543C611.515 23.239 611.49 23.2181 611.469 23.1928C611.411 23.1281 611.336 23.0807 611.252 23.0557C611.168 23.0307 611.079 23.029 610.995 23.0509C610.91 23.0727 610.833 23.1173 610.772 23.1797C610.711 23.2421 610.668 23.32 610.648 23.405C610.628 23.4899 610.632 23.5786 610.659 23.6616C610.686 23.7445 610.735 23.8184 610.801 23.8753C610.867 23.9323 610.947 23.97 611.034 23.9845C611.12 23.999 611.208 23.9897 611.289 23.9576L616.186 22.0177C616.245 21.9943 616.311 21.9952 616.369 22.0203C616.427 22.0454 616.473 22.0926 616.496 22.1515C616.52 22.2104 616.519 22.2761 616.493 22.3343C616.468 22.3925 616.421 22.4383 616.362 22.4617L611.465 24.4016C611.229 24.4951 610.966 24.4913 610.733 24.3909C610.5 24.2905 610.317 24.1018 610.223 23.8662C610.13 23.6307 610.134 23.3676 610.235 23.135C610.336 22.9023 610.526 22.719 610.762 22.6254V22.6254Z" fill="#56CCF2"/>
<path d="M620.571 19.49L619.462 16.6898L609.061 20.8103L607.793 17.6102L618.194 13.4897L617.085 10.6895L623.028 13.4257L620.571 19.49Z" fill="#56CCF2"/>
<path d="M762.887 14.5198C762.83 14.5494 762.788 14.6 762.769 14.6605C762.751 14.7211 762.757 14.7866 762.786 14.8426C762.816 14.8987 762.866 14.9407 762.927 14.9594C762.987 14.9781 763.053 14.972 763.109 14.9424L765.651 13.6039C765.728 13.5633 765.815 13.5445 765.903 13.5497C765.99 13.5549 766.074 13.5838 766.146 13.6333C766.218 13.6828 766.274 13.751 766.31 13.8306C766.346 13.9101 766.359 13.998 766.348 14.0846C766.337 14.1711 766.303 14.2532 766.249 14.3218C766.195 14.3904 766.123 14.443 766.041 14.4738C765.96 14.5046 765.871 14.5125 765.785 14.4966C765.699 14.4807 765.619 14.4416 765.554 14.3836C765.531 14.3606 765.504 14.3425 765.474 14.3304C765.444 14.3183 765.411 14.3125 765.379 14.3133C765.346 14.3141 765.314 14.3215 765.285 14.3351C765.255 14.3486 765.229 14.368 765.207 14.3922C765.185 14.4163 765.169 14.4446 765.158 14.4753C765.147 14.506 765.143 14.5386 765.146 14.571C765.148 14.6033 765.157 14.6348 765.173 14.6636C765.188 14.6923 765.208 14.7176 765.234 14.738C765.364 14.8546 765.523 14.9333 765.695 14.9656C765.867 14.9979 766.044 14.9826 766.208 14.9213C766.372 14.8599 766.516 14.755 766.625 14.6178C766.733 14.4806 766.802 14.3164 766.824 14.1431C766.845 13.9697 766.819 13.7938 766.748 13.6345C766.676 13.4752 766.563 13.3386 766.419 13.2395C766.275 13.1404 766.107 13.0825 765.932 13.0723C765.758 13.062 765.583 13.0997 765.429 13.1813L762.887 14.5198ZM765.608 11.4673L762.643 13.0289C762.587 13.0585 762.521 13.0646 762.46 13.0459C762.4 13.0271 762.349 12.9851 762.32 12.9291C762.29 12.8731 762.284 12.8076 762.303 12.747C762.322 12.6865 762.364 12.6358 762.42 12.6063L765.386 11.0447C765.463 11.0039 765.528 10.9428 765.573 10.868C765.618 10.7932 765.642 10.7075 765.641 10.6203C765.641 10.5331 765.617 10.4476 765.572 10.3732C765.526 10.2987 765.461 10.2381 765.384 10.198C765.306 10.1579 765.219 10.1397 765.132 10.1455C765.045 10.1512 764.961 10.1807 764.889 10.2307C764.818 10.2807 764.761 10.3493 764.726 10.4291C764.69 10.5089 764.677 10.5968 764.688 10.6833C764.694 10.7152 764.694 10.748 764.687 10.7797C764.679 10.8114 764.666 10.8414 764.647 10.8677C764.628 10.8941 764.604 10.9163 764.576 10.933C764.548 10.9497 764.517 10.9605 764.485 10.9649C764.452 10.9692 764.42 10.967 764.388 10.9582C764.357 10.9495 764.328 10.9345 764.303 10.9141C764.277 10.8938 764.256 10.8685 764.241 10.8398C764.226 10.8111 764.217 10.7796 764.215 10.7472C764.192 10.574 764.217 10.3979 764.288 10.238C764.358 10.0781 764.472 9.9404 764.615 9.83998C764.758 9.73955 764.926 9.6802 765.101 9.66838C765.275 9.65655 765.45 9.69269 765.605 9.77288C765.76 9.85308 765.89 9.97425 765.981 10.1232C766.072 10.2722 766.12 10.4434 766.121 10.618C766.121 10.7927 766.073 10.9642 765.983 11.1139C765.893 11.2636 765.763 11.3859 765.608 11.4673V11.4673ZM768.204 12.7996C768.031 12.8903 767.834 12.926 767.64 12.9021C767.446 12.8782 767.264 12.7958 767.119 12.6659C767.093 12.6455 767.073 12.6201 767.058 12.5914C767.042 12.5627 767.033 12.5312 767.031 12.4988C767.028 12.4664 767.033 12.4339 767.043 12.4032C767.054 12.3724 767.07 12.3441 767.092 12.32C767.114 12.2959 767.14 12.2765 767.17 12.2629C767.2 12.2493 767.232 12.2419 767.264 12.2411C767.297 12.2403 767.329 12.2462 767.359 12.2583C767.389 12.2703 767.416 12.2884 767.439 12.3115C767.505 12.3695 767.584 12.4085 767.67 12.4244C767.756 12.4403 767.845 12.4325 767.926 12.4017C768.008 12.3708 768.08 12.3183 768.134 12.2497C768.188 12.1811 768.223 12.099 768.233 12.0124C768.244 11.9258 768.231 11.838 768.195 11.7584C768.159 11.6789 768.103 11.6107 768.031 11.5611C767.959 11.5116 767.875 11.4827 767.788 11.4775C767.701 11.4724 767.614 11.4911 767.536 11.5318L762.876 13.9856C762.82 14.0152 762.754 14.0213 762.694 14.0026C762.633 13.9839 762.582 13.9419 762.553 13.8859C762.523 13.8298 762.517 13.7643 762.536 13.7038C762.555 13.6432 762.597 13.5926 762.653 13.563L767.314 11.1092C767.538 10.9909 767.801 10.9664 768.043 11.0413C768.285 11.1161 768.488 11.2841 768.606 11.5083C768.724 11.7324 768.748 11.9944 768.673 12.2366C768.597 12.4788 768.428 12.6813 768.204 12.7996V12.7996Z" fill="#56CCF2"/>
<path d="M758.787 16.9692L760.191 19.6342L770.089 14.4221L771.693 17.4678L761.794 22.6799L763.198 25.345L756.995 23.262L758.787 16.9692Z" fill="#56CCF2"/>
</svg>
