<svg width="729" height="14" viewBox="0 0 729 14" fill="none" xmlns="http://www.w3.org/2000/svg">
<path d="M165.424 4.0841L165.415 3.08414L165.395 3.08433L165.375 3.0853L165.424 4.0841ZM416.766 1.15576L416.854 0.159659L416.804 0.155207L416.753 0.15584L416.766 1.15576ZM563.577 6.39676L563.612 5.39738L563.598 5.39687L563.583 5.39678L563.577 6.39676ZM244.766 3.31321L244.776 4.31316L244.779 4.31313L244.766 3.31321ZM469.809 5.85261L469.721 6.84871L469.762 6.85235L469.803 6.85259L469.809 5.85261ZM1.01875 13.1546L165.473 5.08289L165.375 3.0853L0.920704 11.157L1.01875 13.1546ZM563.542 7.39615L727.997 13.1551L728.067 11.1564L563.612 5.39738L563.542 7.39615ZM165.434 5.08405L244.776 4.31316L244.757 2.31325L165.415 3.08414L165.434 5.08405ZM244.779 4.31313L416.778 2.15568L416.753 0.15584L244.754 2.31328L244.779 4.31313ZM416.677 2.15186L469.721 6.84871L469.897 4.8565L416.854 0.159659L416.677 2.15186ZM469.803 6.85259L563.571 7.39675L563.583 5.39678L469.815 4.85262L469.803 6.85259Z" fill="url(#paint0_linear_163_2245)"/>
<defs>
<linearGradient id="paint0_linear_163_2245" x1="-28.7581" y1="-4.66778" x2="-24.0835" y2="64.1758" gradientUnits="userSpaceOnUse">
<stop stop-color="#4DD593"/>
<stop offset="1" stop-color="#32B174"/>
</linearGradient>
</defs>
</svg>
