<svg width="24" height="22" viewBox="0 0 24 22" fill="none" xmlns="http://www.w3.org/2000/svg">
<g clip-path="url(#clip0_2436_15031)">
<path d="M15.4922 4.60938C14.9453 4.60938 14.4766 4.41406 14.0859 4.02344C13.6953 3.63281 13.5 3.16406 13.5 2.61719C13.5 2.07031 13.6953 1.60156 14.0859 1.21094C14.4766 0.820313 14.9453 0.625 15.4922 0.625C16.0391 0.625 16.5078 0.820313 16.8984 1.21094C17.2891 1.60156 17.4844 2.07031 17.4844 2.61719C17.4844 3.16406 17.2891 3.63281 16.8984 4.02344C16.5078 4.41406 16.0391 4.60938 15.4922 4.60938ZM4.99219 11.125C6.38281 11.125 7.5625 11.6094 8.53125 12.5781C9.5 13.5469 9.98438 14.7266 9.98438 16.1172C9.98438 17.5078 9.5 18.6875 8.53125 19.6562C7.5625 20.625 6.38281 21.1094 4.99219 21.1094C3.60156 21.1094 2.42188 20.625 1.45312 19.6562C0.484375 18.6875 0 17.5078 0 16.1172C0 14.7266 0.484375 13.5469 1.45312 12.5781C2.42188 11.6094 3.60156 11.125 4.99219 11.125ZM4.99219 19.6094C5.94531 19.6094 6.76562 19.2656 7.45312 18.5781C8.14062 17.8906 8.48438 17.0703 8.48438 16.1172C8.48438 15.1641 8.14062 14.3438 7.45312 13.6562C6.76562 12.9688 5.94531 12.625 4.99219 12.625C4.03906 12.625 3.21875 12.9688 2.53125 13.6562C1.84375 14.3438 1.5 15.1641 1.5 16.1172C1.5 17.0703 1.84375 17.8906 2.53125 18.5781C3.21875 19.2656 4.03906 19.6094 4.99219 19.6094ZM10.7812 9.625L12.9844 11.9219V18.1094H11.0156V13.1406L7.78125 10.3281C7.40625 10.0156 7.21875 9.54688 7.21875 8.92188C7.21875 8.39062 7.40625 7.92188 7.78125 7.51562L10.5938 4.70312C10.9062 4.32812 11.375 4.14062 12 4.14062C12.5625 4.14062 13.0938 4.32812 13.5938 4.70312L15.5156 6.625C16.5156 7.625 17.7031 8.125 19.0781 8.125V10.1406C17.0781 10.1406 15.3906 9.4375 14.0156 8.03125L13.2188 7.23438L10.7812 9.625ZM19.0078 11.125C20.3984 11.125 21.5781 11.6094 22.5469 12.5781C23.5156 13.5469 24 14.7266 24 16.1172C24 17.5078 23.5156 18.6875 22.5469 19.6562C21.5781 20.625 20.3984 21.1094 19.0078 21.1094C17.6172 21.1094 16.4375 20.625 15.4688 19.6562C14.5 18.6875 14.0156 17.5078 14.0156 16.1172C14.0156 14.7266 14.5 13.5469 15.4688 12.5781C16.4375 11.6094 17.6172 11.125 19.0078 11.125ZM19.0078 19.6094C19.9609 19.6094 20.7812 19.2656 21.4688 18.5781C22.1562 17.8906 22.5 17.0703 22.5 16.1172C22.5 15.1641 22.1562 14.3438 21.4688 13.6562C20.7812 12.9688 19.9609 12.625 19.0078 12.625C18.0547 12.625 17.2344 12.9688 16.5469 13.6562C15.8594 14.3438 15.5156 15.1641 15.5156 16.1172C15.5156 17.0703 15.8594 17.8906 16.5469 18.5781C17.2344 19.2656 18.0547 19.6094 19.0078 19.6094Z" fill="#2B3135"/>
</g>
<defs>
<clipPath id="clip0_2436_15031">
<rect width="24" height="20.625" fill="white" transform="translate(0 0.625)"/>
</clipPath>
</defs>
</svg>
